%TF.GenerationSoftware,KiCad,Pcbnew,5.1.9*%
%TF.CreationDate,2021-03-09T01:37:29+01:00*%
%TF.ProjectId,nixie_stand,6e697869-655f-4737-9461-6e642e6b6963,rev?*%
%TF.SameCoordinates,Original*%
%TF.FileFunction,Legend,Top*%
%TF.FilePolarity,Positive*%
%FSLAX46Y46*%
G04 Gerber Fmt 4.6, Leading zero omitted, Abs format (unit mm)*
G04 Created by KiCad (PCBNEW 5.1.9) date 2021-03-09 01:37:29*
%MOMM*%
%LPD*%
G01*
G04 APERTURE LIST*
%ADD10C,0.150000*%
%ADD11C,0.250000*%
%ADD12C,0.120000*%
%ADD13C,0.100000*%
G04 APERTURE END LIST*
D10*
X80732380Y-67980761D02*
X81446666Y-67980761D01*
X81589523Y-68042666D01*
X81684761Y-68166476D01*
X81732380Y-68352190D01*
X81732380Y-68476000D01*
X81732380Y-66742666D02*
X81732380Y-67361714D01*
X80732380Y-67361714D01*
X81637142Y-65566476D02*
X81684761Y-65628380D01*
X81732380Y-65814095D01*
X81732380Y-65937904D01*
X81684761Y-66123619D01*
X81589523Y-66247428D01*
X81494285Y-66309333D01*
X81303809Y-66371238D01*
X81160952Y-66371238D01*
X80970476Y-66309333D01*
X80875238Y-66247428D01*
X80780000Y-66123619D01*
X80732380Y-65937904D01*
X80732380Y-65814095D01*
X80780000Y-65628380D01*
X80827619Y-65566476D01*
X80732380Y-64637904D02*
X81446666Y-64637904D01*
X81589523Y-64699809D01*
X81684761Y-64823619D01*
X81732380Y-65009333D01*
X81732380Y-65133142D01*
X81732380Y-63399809D02*
X81732380Y-64018857D01*
X80732380Y-64018857D01*
X81637142Y-62223619D02*
X81684761Y-62285523D01*
X81732380Y-62471238D01*
X81732380Y-62595047D01*
X81684761Y-62780761D01*
X81589523Y-62904571D01*
X81494285Y-62966476D01*
X81303809Y-63028380D01*
X81160952Y-63028380D01*
X80970476Y-62966476D01*
X80875238Y-62904571D01*
X80780000Y-62780761D01*
X80732380Y-62595047D01*
X80732380Y-62471238D01*
X80780000Y-62285523D01*
X80827619Y-62223619D01*
X80732380Y-61295047D02*
X81446666Y-61295047D01*
X81589523Y-61356952D01*
X81684761Y-61480761D01*
X81732380Y-61666476D01*
X81732380Y-61790285D01*
X81732380Y-60056952D02*
X81732380Y-60676000D01*
X80732380Y-60676000D01*
X81637142Y-58880761D02*
X81684761Y-58942666D01*
X81732380Y-59128380D01*
X81732380Y-59252190D01*
X81684761Y-59437904D01*
X81589523Y-59561714D01*
X81494285Y-59623619D01*
X81303809Y-59685523D01*
X81160952Y-59685523D01*
X80970476Y-59623619D01*
X80875238Y-59561714D01*
X80780000Y-59437904D01*
X80732380Y-59252190D01*
X80732380Y-59128380D01*
X80780000Y-58942666D01*
X80827619Y-58880761D01*
X80732380Y-57952190D02*
X81446666Y-57952190D01*
X81589523Y-58014095D01*
X81684761Y-58137904D01*
X81732380Y-58323619D01*
X81732380Y-58447428D01*
X81732380Y-56714095D02*
X81732380Y-57333142D01*
X80732380Y-57333142D01*
X81637142Y-55537904D02*
X81684761Y-55599809D01*
X81732380Y-55785523D01*
X81732380Y-55909333D01*
X81684761Y-56095047D01*
X81589523Y-56218857D01*
X81494285Y-56280761D01*
X81303809Y-56342666D01*
X81160952Y-56342666D01*
X80970476Y-56280761D01*
X80875238Y-56218857D01*
X80780000Y-56095047D01*
X80732380Y-55909333D01*
X80732380Y-55785523D01*
X80780000Y-55599809D01*
X80827619Y-55537904D01*
D11*
X85347809Y-76668380D02*
X85781142Y-77668380D01*
X86214476Y-76668380D01*
X87143047Y-77620761D02*
X87019238Y-77668380D01*
X86771619Y-77668380D01*
X86647809Y-77620761D01*
X86585904Y-77525523D01*
X86585904Y-77144571D01*
X86647809Y-77049333D01*
X86771619Y-77001714D01*
X87019238Y-77001714D01*
X87143047Y-77049333D01*
X87204952Y-77144571D01*
X87204952Y-77239809D01*
X86585904Y-77335047D01*
X87762095Y-77668380D02*
X87762095Y-77001714D01*
X87762095Y-77192190D02*
X87824000Y-77096952D01*
X87885904Y-77049333D01*
X88009714Y-77001714D01*
X88133523Y-77001714D01*
X88504952Y-77620761D02*
X88628761Y-77668380D01*
X88876380Y-77668380D01*
X89000190Y-77620761D01*
X89062095Y-77525523D01*
X89062095Y-77477904D01*
X89000190Y-77382666D01*
X88876380Y-77335047D01*
X88690666Y-77335047D01*
X88566857Y-77287428D01*
X88504952Y-77192190D01*
X88504952Y-77144571D01*
X88566857Y-77049333D01*
X88690666Y-77001714D01*
X88876380Y-77001714D01*
X89000190Y-77049333D01*
X90052571Y-77144571D02*
X90238285Y-77192190D01*
X90300190Y-77239809D01*
X90362095Y-77335047D01*
X90362095Y-77477904D01*
X90300190Y-77573142D01*
X90238285Y-77620761D01*
X90114476Y-77668380D01*
X89619238Y-77668380D01*
X89619238Y-76668380D01*
X90052571Y-76668380D01*
X90176380Y-76716000D01*
X90238285Y-76763619D01*
X90300190Y-76858857D01*
X90300190Y-76954095D01*
X90238285Y-77049333D01*
X90176380Y-77096952D01*
X90052571Y-77144571D01*
X89619238Y-77144571D01*
X90919238Y-77668380D02*
X90919238Y-77001714D01*
X90919238Y-76668380D02*
X90857333Y-76716000D01*
X90919238Y-76763619D01*
X90981142Y-76716000D01*
X90919238Y-76668380D01*
X90919238Y-76763619D01*
X91538285Y-77001714D02*
X91538285Y-77668380D01*
X91538285Y-77096952D02*
X91600190Y-77049333D01*
X91724000Y-77001714D01*
X91909714Y-77001714D01*
X92033523Y-77049333D01*
X92095428Y-77144571D01*
X92095428Y-77668380D01*
X93271619Y-77668380D02*
X93271619Y-77144571D01*
X93209714Y-77049333D01*
X93085904Y-77001714D01*
X92838285Y-77001714D01*
X92714476Y-77049333D01*
X93271619Y-77620761D02*
X93147809Y-77668380D01*
X92838285Y-77668380D01*
X92714476Y-77620761D01*
X92652571Y-77525523D01*
X92652571Y-77430285D01*
X92714476Y-77335047D01*
X92838285Y-77287428D01*
X93147809Y-77287428D01*
X93271619Y-77239809D01*
X93890666Y-77668380D02*
X93890666Y-77001714D01*
X93890666Y-77192190D02*
X93952571Y-77096952D01*
X94014476Y-77049333D01*
X94138285Y-77001714D01*
X94262095Y-77001714D01*
X94695428Y-77668380D02*
X94695428Y-77001714D01*
X94695428Y-76668380D02*
X94633523Y-76716000D01*
X94695428Y-76763619D01*
X94757333Y-76716000D01*
X94695428Y-76668380D01*
X94695428Y-76763619D01*
X95314476Y-77668380D02*
X95314476Y-77001714D01*
X95314476Y-76668380D02*
X95252571Y-76716000D01*
X95314476Y-76763619D01*
X95376380Y-76716000D01*
X95314476Y-76668380D01*
X95314476Y-76763619D01*
D12*
X71120000Y-81788000D02*
X71120000Y-40640000D01*
X110744000Y-81788000D02*
X71120000Y-81788000D01*
X110744000Y-40640000D02*
X110744000Y-81788000D01*
X71120000Y-40640000D02*
X110744000Y-40640000D01*
%TO.C,U1*%
X80534000Y-71434000D02*
G75*
G02*
X82534000Y-71434000I1000000J0D01*
G01*
X82534000Y-71434000D02*
X84184000Y-71434000D01*
X84184000Y-71434000D02*
X84184000Y-50994000D01*
X84184000Y-50994000D02*
X78884000Y-50994000D01*
X78884000Y-50994000D02*
X78884000Y-71434000D01*
X78884000Y-71434000D02*
X80534000Y-71434000D01*
X86674000Y-71494000D02*
X86674000Y-50934000D01*
X86674000Y-50934000D02*
X76394000Y-50934000D01*
X76394000Y-50934000D02*
X76394000Y-71494000D01*
X76394000Y-71494000D02*
X86674000Y-71494000D01*
%TO.C,J3*%
X72092000Y-69072000D02*
X74212000Y-69072000D01*
X72092000Y-69072000D02*
X72092000Y-71132000D01*
X72092000Y-71132000D02*
X74212000Y-71132000D01*
X74212000Y-69072000D02*
X74212000Y-71132000D01*
X74212000Y-67012000D02*
X74212000Y-68072000D01*
X73152000Y-67012000D02*
X74212000Y-67012000D01*
%TO.C,J2*%
X107144000Y-60944000D02*
X109264000Y-60944000D01*
X107144000Y-60944000D02*
X107144000Y-63004000D01*
X107144000Y-63004000D02*
X109264000Y-63004000D01*
X109264000Y-60944000D02*
X109264000Y-63004000D01*
X109264000Y-58884000D02*
X109264000Y-59944000D01*
X108204000Y-58884000D02*
X109264000Y-58884000D01*
%TO.C,V1*%
X105664000Y-60960000D02*
G75*
G03*
X105664000Y-60960000I-8128000J0D01*
G01*
D13*
G36*
X89916000Y-60960000D02*
G01*
X88392000Y-61468000D01*
X88392000Y-60452000D01*
X89916000Y-60960000D01*
G37*
X89916000Y-60960000D02*
X88392000Y-61468000D01*
X88392000Y-60452000D01*
X89916000Y-60960000D01*
D12*
%TO.C,J1*%
X72092000Y-63956000D02*
X74212000Y-63956000D01*
X72092000Y-57896000D02*
X72092000Y-63956000D01*
X74212000Y-57896000D02*
X74212000Y-63956000D01*
X72092000Y-57896000D02*
X74212000Y-57896000D01*
X72092000Y-56896000D02*
X72092000Y-55836000D01*
X72092000Y-55836000D02*
X73152000Y-55836000D01*
%TO.C,U1*%
D10*
X80772095Y-71886380D02*
X80772095Y-72695904D01*
X80819714Y-72791142D01*
X80867333Y-72838761D01*
X80962571Y-72886380D01*
X81153047Y-72886380D01*
X81248285Y-72838761D01*
X81295904Y-72791142D01*
X81343523Y-72695904D01*
X81343523Y-71886380D01*
X82343523Y-72886380D02*
X81772095Y-72886380D01*
X82057809Y-72886380D02*
X82057809Y-71886380D01*
X81962571Y-72029238D01*
X81867333Y-72124476D01*
X81772095Y-72172095D01*
%TO.C,J3*%
X72818666Y-65024380D02*
X72818666Y-65738666D01*
X72771047Y-65881523D01*
X72675809Y-65976761D01*
X72532952Y-66024380D01*
X72437714Y-66024380D01*
X73199619Y-65024380D02*
X73818666Y-65024380D01*
X73485333Y-65405333D01*
X73628190Y-65405333D01*
X73723428Y-65452952D01*
X73771047Y-65500571D01*
X73818666Y-65595809D01*
X73818666Y-65833904D01*
X73771047Y-65929142D01*
X73723428Y-65976761D01*
X73628190Y-66024380D01*
X73342476Y-66024380D01*
X73247238Y-65976761D01*
X73199619Y-65929142D01*
%TO.C,J2*%
X107870666Y-56896380D02*
X107870666Y-57610666D01*
X107823047Y-57753523D01*
X107727809Y-57848761D01*
X107584952Y-57896380D01*
X107489714Y-57896380D01*
X108299238Y-56991619D02*
X108346857Y-56944000D01*
X108442095Y-56896380D01*
X108680190Y-56896380D01*
X108775428Y-56944000D01*
X108823047Y-56991619D01*
X108870666Y-57086857D01*
X108870666Y-57182095D01*
X108823047Y-57324952D01*
X108251619Y-57896380D01*
X108870666Y-57896380D01*
%TO.C,V1*%
X95972380Y-70913523D02*
X96972380Y-70580190D01*
X95972380Y-70246857D01*
X96972380Y-69389714D02*
X96972380Y-69961142D01*
X96972380Y-69675428D02*
X95972380Y-69675428D01*
X96115238Y-69770666D01*
X96210476Y-69865904D01*
X96258095Y-69961142D01*
X101258666Y-60182095D02*
X101258666Y-59705904D01*
X101544380Y-60277333D02*
X100544380Y-59944000D01*
X101544380Y-59610666D01*
X99528380Y-58975619D02*
X99528380Y-58880380D01*
X99576000Y-58785142D01*
X99623619Y-58737523D01*
X99718857Y-58689904D01*
X99909333Y-58642285D01*
X100147428Y-58642285D01*
X100337904Y-58689904D01*
X100433142Y-58737523D01*
X100480761Y-58785142D01*
X100528380Y-58880380D01*
X100528380Y-58975619D01*
X100480761Y-59070857D01*
X100433142Y-59118476D01*
X100337904Y-59166095D01*
X100147428Y-59213714D01*
X99909333Y-59213714D01*
X99718857Y-59166095D01*
X99623619Y-59118476D01*
X99576000Y-59070857D01*
X99528380Y-58975619D01*
X99004380Y-58102476D02*
X99004380Y-57912000D01*
X98956761Y-57816761D01*
X98909142Y-57769142D01*
X98766285Y-57673904D01*
X98575809Y-57626285D01*
X98194857Y-57626285D01*
X98099619Y-57673904D01*
X98052000Y-57721523D01*
X98004380Y-57816761D01*
X98004380Y-58007238D01*
X98052000Y-58102476D01*
X98099619Y-58150095D01*
X98194857Y-58197714D01*
X98432952Y-58197714D01*
X98528190Y-58150095D01*
X98575809Y-58102476D01*
X98623428Y-58007238D01*
X98623428Y-57816761D01*
X98575809Y-57721523D01*
X98528190Y-57673904D01*
X98432952Y-57626285D01*
X96813714Y-58554857D02*
X97480380Y-58554857D01*
X96908952Y-58554857D02*
X96861333Y-58507238D01*
X96813714Y-58412000D01*
X96813714Y-58269142D01*
X96861333Y-58173904D01*
X96956571Y-58126285D01*
X97480380Y-58126285D01*
X97432761Y-57221523D02*
X97480380Y-57316761D01*
X97480380Y-57507238D01*
X97432761Y-57602476D01*
X97385142Y-57650095D01*
X97289904Y-57697714D01*
X97004190Y-57697714D01*
X96908952Y-57650095D01*
X96861333Y-57602476D01*
X96813714Y-57507238D01*
X96813714Y-57316761D01*
X96861333Y-57221523D01*
X95384952Y-58515238D02*
X95337333Y-58610476D01*
X95289714Y-58658095D01*
X95194476Y-58705714D01*
X95146857Y-58705714D01*
X95051619Y-58658095D01*
X95004000Y-58610476D01*
X94956380Y-58515238D01*
X94956380Y-58324761D01*
X95004000Y-58229523D01*
X95051619Y-58181904D01*
X95146857Y-58134285D01*
X95194476Y-58134285D01*
X95289714Y-58181904D01*
X95337333Y-58229523D01*
X95384952Y-58324761D01*
X95384952Y-58515238D01*
X95432571Y-58610476D01*
X95480190Y-58658095D01*
X95575428Y-58705714D01*
X95765904Y-58705714D01*
X95861142Y-58658095D01*
X95908761Y-58610476D01*
X95956380Y-58515238D01*
X95956380Y-58324761D01*
X95908761Y-58229523D01*
X95861142Y-58181904D01*
X95765904Y-58134285D01*
X95575428Y-58134285D01*
X95480190Y-58181904D01*
X95432571Y-58229523D01*
X95384952Y-58324761D01*
X93940380Y-59769333D02*
X93940380Y-59102666D01*
X94940380Y-59531238D01*
X93432380Y-60769523D02*
X93432380Y-60960000D01*
X93480000Y-61055238D01*
X93527619Y-61102857D01*
X93670476Y-61198095D01*
X93860952Y-61245714D01*
X94241904Y-61245714D01*
X94337142Y-61198095D01*
X94384761Y-61150476D01*
X94432380Y-61055238D01*
X94432380Y-60864761D01*
X94384761Y-60769523D01*
X94337142Y-60721904D01*
X94241904Y-60674285D01*
X94003809Y-60674285D01*
X93908571Y-60721904D01*
X93860952Y-60769523D01*
X93813333Y-60864761D01*
X93813333Y-61055238D01*
X93860952Y-61150476D01*
X93908571Y-61198095D01*
X94003809Y-61245714D01*
X93940380Y-62245904D02*
X93940380Y-62722095D01*
X94416571Y-62769714D01*
X94368952Y-62722095D01*
X94321333Y-62626857D01*
X94321333Y-62388761D01*
X94368952Y-62293523D01*
X94416571Y-62245904D01*
X94511809Y-62198285D01*
X94749904Y-62198285D01*
X94845142Y-62245904D01*
X94892761Y-62293523D01*
X94940380Y-62388761D01*
X94940380Y-62626857D01*
X94892761Y-62722095D01*
X94845142Y-62769714D01*
X94781714Y-63309523D02*
X95448380Y-63309523D01*
X94400761Y-63547619D02*
X95115047Y-63785714D01*
X95115047Y-63166666D01*
X96305714Y-64484190D02*
X97305714Y-64484190D01*
X96353333Y-64484190D02*
X96305714Y-64388952D01*
X96305714Y-64198476D01*
X96353333Y-64103238D01*
X96400952Y-64055619D01*
X96496190Y-64008000D01*
X96781904Y-64008000D01*
X96877142Y-64055619D01*
X96924761Y-64103238D01*
X96972380Y-64198476D01*
X96972380Y-64388952D01*
X96924761Y-64484190D01*
X96972380Y-63436571D02*
X96924761Y-63531809D01*
X96829523Y-63579428D01*
X95972380Y-63579428D01*
X98004380Y-64341333D02*
X98004380Y-63722285D01*
X98385333Y-64055619D01*
X98385333Y-63912761D01*
X98432952Y-63817523D01*
X98480571Y-63769904D01*
X98575809Y-63722285D01*
X98813904Y-63722285D01*
X98909142Y-63769904D01*
X98956761Y-63817523D01*
X99004380Y-63912761D01*
X99004380Y-64198476D01*
X98956761Y-64293714D01*
X98909142Y-64341333D01*
X99623619Y-63277714D02*
X99576000Y-63230095D01*
X99528380Y-63134857D01*
X99528380Y-62896761D01*
X99576000Y-62801523D01*
X99623619Y-62753904D01*
X99718857Y-62706285D01*
X99814095Y-62706285D01*
X99956952Y-62753904D01*
X100528380Y-63325333D01*
X100528380Y-62706285D01*
X101544380Y-61690285D02*
X101544380Y-62261714D01*
X101544380Y-61976000D02*
X100544380Y-61976000D01*
X100687238Y-62071238D01*
X100782476Y-62166476D01*
X100830095Y-62261714D01*
X104084380Y-58102476D02*
X104084380Y-58673904D01*
X104084380Y-58388190D02*
X103084380Y-58388190D01*
X103227238Y-58483428D01*
X103322476Y-58578666D01*
X103370095Y-58673904D01*
X103084380Y-57769142D02*
X103084380Y-57150095D01*
X103465333Y-57483428D01*
X103465333Y-57340571D01*
X103512952Y-57245333D01*
X103560571Y-57197714D01*
X103655809Y-57150095D01*
X103893904Y-57150095D01*
X103989142Y-57197714D01*
X104036761Y-57245333D01*
X104084380Y-57340571D01*
X104084380Y-57626285D01*
X104036761Y-57721523D01*
X103989142Y-57769142D01*
X102052380Y-56070476D02*
X102052380Y-56641904D01*
X102052380Y-56356190D02*
X101052380Y-56356190D01*
X101195238Y-56451428D01*
X101290476Y-56546666D01*
X101338095Y-56641904D01*
X101147619Y-55689523D02*
X101100000Y-55641904D01*
X101052380Y-55546666D01*
X101052380Y-55308571D01*
X101100000Y-55213333D01*
X101147619Y-55165714D01*
X101242857Y-55118095D01*
X101338095Y-55118095D01*
X101480952Y-55165714D01*
X102052380Y-55737142D01*
X102052380Y-55118095D01*
X99512380Y-55054476D02*
X99512380Y-55625904D01*
X99512380Y-55340190D02*
X98512380Y-55340190D01*
X98655238Y-55435428D01*
X98750476Y-55530666D01*
X98798095Y-55625904D01*
X99512380Y-54102095D02*
X99512380Y-54673523D01*
X99512380Y-54387809D02*
X98512380Y-54387809D01*
X98655238Y-54483047D01*
X98750476Y-54578285D01*
X98798095Y-54673523D01*
X96464380Y-55054476D02*
X96464380Y-55625904D01*
X96464380Y-55340190D02*
X95464380Y-55340190D01*
X95607238Y-55435428D01*
X95702476Y-55530666D01*
X95750095Y-55625904D01*
X95464380Y-54435428D02*
X95464380Y-54340190D01*
X95512000Y-54244952D01*
X95559619Y-54197333D01*
X95654857Y-54149714D01*
X95845333Y-54102095D01*
X96083428Y-54102095D01*
X96273904Y-54149714D01*
X96369142Y-54197333D01*
X96416761Y-54244952D01*
X96464380Y-54340190D01*
X96464380Y-54435428D01*
X96416761Y-54530666D01*
X96369142Y-54578285D01*
X96273904Y-54625904D01*
X96083428Y-54673523D01*
X95845333Y-54673523D01*
X95654857Y-54625904D01*
X95559619Y-54578285D01*
X95512000Y-54530666D01*
X95464380Y-54435428D01*
X93924380Y-56070476D02*
X93924380Y-55880000D01*
X93876761Y-55784761D01*
X93829142Y-55737142D01*
X93686285Y-55641904D01*
X93495809Y-55594285D01*
X93114857Y-55594285D01*
X93019619Y-55641904D01*
X92972000Y-55689523D01*
X92924380Y-55784761D01*
X92924380Y-55975238D01*
X92972000Y-56070476D01*
X93019619Y-56118095D01*
X93114857Y-56165714D01*
X93352952Y-56165714D01*
X93448190Y-56118095D01*
X93495809Y-56070476D01*
X93543428Y-55975238D01*
X93543428Y-55784761D01*
X93495809Y-55689523D01*
X93448190Y-55641904D01*
X93352952Y-55594285D01*
X91828952Y-58007238D02*
X91781333Y-58102476D01*
X91733714Y-58150095D01*
X91638476Y-58197714D01*
X91590857Y-58197714D01*
X91495619Y-58150095D01*
X91448000Y-58102476D01*
X91400380Y-58007238D01*
X91400380Y-57816761D01*
X91448000Y-57721523D01*
X91495619Y-57673904D01*
X91590857Y-57626285D01*
X91638476Y-57626285D01*
X91733714Y-57673904D01*
X91781333Y-57721523D01*
X91828952Y-57816761D01*
X91828952Y-58007238D01*
X91876571Y-58102476D01*
X91924190Y-58150095D01*
X92019428Y-58197714D01*
X92209904Y-58197714D01*
X92305142Y-58150095D01*
X92352761Y-58102476D01*
X92400380Y-58007238D01*
X92400380Y-57816761D01*
X92352761Y-57721523D01*
X92305142Y-57673904D01*
X92209904Y-57626285D01*
X92019428Y-57626285D01*
X91924190Y-57673904D01*
X91876571Y-57721523D01*
X91828952Y-57816761D01*
X90384380Y-61293333D02*
X90384380Y-60626666D01*
X91384380Y-61055238D01*
X91400380Y-63817523D02*
X91400380Y-64008000D01*
X91448000Y-64103238D01*
X91495619Y-64150857D01*
X91638476Y-64246095D01*
X91828952Y-64293714D01*
X92209904Y-64293714D01*
X92305142Y-64246095D01*
X92352761Y-64198476D01*
X92400380Y-64103238D01*
X92400380Y-63912761D01*
X92352761Y-63817523D01*
X92305142Y-63769904D01*
X92209904Y-63722285D01*
X91971809Y-63722285D01*
X91876571Y-63769904D01*
X91828952Y-63817523D01*
X91781333Y-63912761D01*
X91781333Y-64103238D01*
X91828952Y-64198476D01*
X91876571Y-64246095D01*
X91971809Y-64293714D01*
X93432380Y-65801904D02*
X93432380Y-66278095D01*
X93908571Y-66325714D01*
X93860952Y-66278095D01*
X93813333Y-66182857D01*
X93813333Y-65944761D01*
X93860952Y-65849523D01*
X93908571Y-65801904D01*
X94003809Y-65754285D01*
X94241904Y-65754285D01*
X94337142Y-65801904D01*
X94384761Y-65849523D01*
X94432380Y-65944761D01*
X94432380Y-66182857D01*
X94384761Y-66278095D01*
X94337142Y-66325714D01*
X96305714Y-66865523D02*
X96972380Y-66865523D01*
X95924761Y-67103619D02*
X96639047Y-67341714D01*
X96639047Y-66722666D01*
X98512380Y-67389333D02*
X98512380Y-66770285D01*
X98893333Y-67103619D01*
X98893333Y-66960761D01*
X98940952Y-66865523D01*
X98988571Y-66817904D01*
X99083809Y-66770285D01*
X99321904Y-66770285D01*
X99417142Y-66817904D01*
X99464761Y-66865523D01*
X99512380Y-66960761D01*
X99512380Y-67246476D01*
X99464761Y-67341714D01*
X99417142Y-67389333D01*
X100639619Y-66325714D02*
X100592000Y-66278095D01*
X100544380Y-66182857D01*
X100544380Y-65944761D01*
X100592000Y-65849523D01*
X100639619Y-65801904D01*
X100734857Y-65754285D01*
X100830095Y-65754285D01*
X100972952Y-65801904D01*
X101544380Y-66373333D01*
X101544380Y-65754285D01*
X103068380Y-64230285D02*
X103068380Y-64801714D01*
X103068380Y-64516000D02*
X102068380Y-64516000D01*
X102211238Y-64611238D01*
X102306476Y-64706476D01*
X102354095Y-64801714D01*
%TO.C,J1*%
X72818666Y-54288380D02*
X72818666Y-55002666D01*
X72771047Y-55145523D01*
X72675809Y-55240761D01*
X72532952Y-55288380D01*
X72437714Y-55288380D01*
X73818666Y-55288380D02*
X73247238Y-55288380D01*
X73532952Y-55288380D02*
X73532952Y-54288380D01*
X73437714Y-54431238D01*
X73342476Y-54526476D01*
X73247238Y-54574095D01*
%TD*%
M02*
