%TF.GenerationSoftware,KiCad,Pcbnew,5.1.9*%
%TF.CreationDate,2021-03-09T01:37:29+01:00*%
%TF.ProjectId,nixie_stand,6e697869-655f-4737-9461-6e642e6b6963,rev?*%
%TF.SameCoordinates,Original*%
%TF.FileFunction,Copper,L2,Bot*%
%TF.FilePolarity,Positive*%
%FSLAX46Y46*%
G04 Gerber Fmt 4.6, Leading zero omitted, Abs format (unit mm)*
G04 Created by KiCad (PCBNEW 5.1.9) date 2021-03-09 01:37:29*
%MOMM*%
%LPD*%
G01*
G04 APERTURE LIST*
%TA.AperFunction,ComponentPad*%
%ADD10O,1.600000X1.600000*%
%TD*%
%TA.AperFunction,ComponentPad*%
%ADD11R,1.600000X1.600000*%
%TD*%
%TA.AperFunction,ComponentPad*%
%ADD12O,1.350000X1.350000*%
%TD*%
%TA.AperFunction,ComponentPad*%
%ADD13R,1.350000X1.350000*%
%TD*%
%TA.AperFunction,ComponentPad*%
%ADD14C,1.524000*%
%TD*%
%TA.AperFunction,ComponentPad*%
%ADD15C,8.600000*%
%TD*%
%TA.AperFunction,ViaPad*%
%ADD16C,1.000000*%
%TD*%
%TA.AperFunction,Conductor*%
%ADD17C,0.400000*%
%TD*%
%TA.AperFunction,Conductor*%
%ADD18C,0.254000*%
%TD*%
%TA.AperFunction,Conductor*%
%ADD19C,0.100000*%
%TD*%
G04 APERTURE END LIST*
D10*
%TO.P,U1,16*%
%TO.N,+5V*%
X77724000Y-70104000D03*
%TO.P,U1,8*%
%TO.N,GND*%
X85344000Y-52324000D03*
%TO.P,U1,15*%
%TO.N,Net-(J1-Pad4)*%
X77724000Y-67564000D03*
%TO.P,U1,7*%
%TO.N,Net-(U1-Pad7)*%
X85344000Y-54864000D03*
%TO.P,U1,14*%
%TO.N,Net-(J1-Pad3)*%
X77724000Y-65024000D03*
%TO.P,U1,6*%
%TO.N,Net-(U1-Pad6)*%
X85344000Y-57404000D03*
%TO.P,U1,13*%
%TO.N,Net-(J1-Pad2)*%
X77724000Y-62484000D03*
%TO.P,U1,5*%
%TO.N,Net-(U1-Pad5)*%
X85344000Y-59944000D03*
%TO.P,U1,12*%
%TO.N,Net-(J1-Pad1)*%
X77724000Y-59944000D03*
%TO.P,U1,4*%
%TO.N,Net-(U1-Pad4)*%
X85344000Y-62484000D03*
%TO.P,U1,11*%
%TO.N,Net-(U1-Pad11)*%
X77724000Y-57404000D03*
%TO.P,U1,3*%
%TO.N,Net-(U1-Pad3)*%
X85344000Y-65024000D03*
%TO.P,U1,10*%
%TO.N,Net-(U1-Pad10)*%
X77724000Y-54864000D03*
%TO.P,U1,2*%
%TO.N,Net-(U1-Pad2)*%
X85344000Y-67564000D03*
%TO.P,U1,9*%
%TO.N,Net-(U1-Pad9)*%
X77724000Y-52324000D03*
D11*
%TO.P,U1,1*%
%TO.N,Net-(U1-Pad1)*%
X85344000Y-70104000D03*
%TD*%
D12*
%TO.P,J3,2*%
%TO.N,GND*%
X73152000Y-70072000D03*
D13*
%TO.P,J3,1*%
%TO.N,+5V*%
X73152000Y-68072000D03*
%TD*%
D12*
%TO.P,J2,2*%
%TO.N,GND*%
X108204000Y-61944000D03*
D13*
%TO.P,J2,1*%
%TO.N,VCC*%
X108204000Y-59944000D03*
%TD*%
D14*
%TO.P,V1,12*%
%TO.N,Net-(U1-Pad1)*%
X100584000Y-57404000D03*
%TO.P,V1,11*%
%TO.N,Net-(U1-Pad11)*%
X98552000Y-56388000D03*
%TO.P,V1,10*%
%TO.N,Net-(V1-Pad10)*%
X96520000Y-56388000D03*
%TO.P,V1,9*%
%TO.N,Net-(U1-Pad10)*%
X94488000Y-57404000D03*
%TO.P,V1,8*%
%TO.N,Net-(U1-Pad9)*%
X92964000Y-58928000D03*
%TO.P,V1,7*%
%TO.N,Net-(U1-Pad7)*%
X92456000Y-60960000D03*
%TO.P,V1,6*%
%TO.N,Net-(U1-Pad6)*%
X92964000Y-62992000D03*
%TO.P,V1,5*%
%TO.N,Net-(U1-Pad5)*%
X94488000Y-64516000D03*
%TO.P,V1,4*%
%TO.N,Net-(V1-Pad4)*%
X96520000Y-65532000D03*
%TO.P,V1,3*%
%TO.N,Net-(U1-Pad4)*%
X98552000Y-65532000D03*
%TO.P,V1,2*%
%TO.N,Net-(U1-Pad3)*%
X100584000Y-64516000D03*
%TO.P,V1,1*%
%TO.N,Net-(U1-Pad2)*%
X102108000Y-62992000D03*
%TO.P,V1,13*%
%TO.N,VCC*%
X102108000Y-58928000D03*
%TD*%
D15*
%TO.P,H4,1*%
%TO.N,GND*%
X75692000Y-77216000D03*
%TD*%
%TO.P,H3,1*%
%TO.N,GND*%
X105664000Y-77216000D03*
%TD*%
%TO.P,H2,1*%
%TO.N,GND*%
X105664000Y-45720000D03*
%TD*%
%TO.P,H1,1*%
%TO.N,GND*%
X76200000Y-45720000D03*
%TD*%
D12*
%TO.P,J1,4*%
%TO.N,Net-(J1-Pad4)*%
X73152000Y-62896000D03*
%TO.P,J1,3*%
%TO.N,Net-(J1-Pad3)*%
X73152000Y-60896000D03*
%TO.P,J1,2*%
%TO.N,Net-(J1-Pad2)*%
X73152000Y-58896000D03*
D13*
%TO.P,J1,1*%
%TO.N,Net-(J1-Pad1)*%
X73152000Y-56896000D03*
%TD*%
D16*
%TO.N,Net-(U1-Pad11)*%
X83820000Y-46736000D03*
%TO.N,Net-(U1-Pad10)*%
X81280000Y-47752000D03*
%TO.N,Net-(U1-Pad1)*%
X105156000Y-63500000D03*
%TD*%
D17*
%TO.N,GND*%
X73152000Y-74676000D02*
X75692000Y-77216000D01*
X73152000Y-70072000D02*
X73152000Y-74676000D01*
X75692000Y-77216000D02*
X105664000Y-77216000D01*
X108204000Y-67056000D02*
X108204000Y-61944000D01*
X105664000Y-69596000D02*
X108204000Y-67056000D01*
X105664000Y-77216000D02*
X105664000Y-69596000D01*
%TO.N,Net-(U1-Pad11)*%
X83820000Y-46736000D02*
X83820000Y-48768000D01*
X83820000Y-48768000D02*
X82296000Y-50292000D01*
X82296000Y-52832000D02*
X77724000Y-57404000D01*
X82296000Y-50292000D02*
X82296000Y-52832000D01*
%TO.N,Net-(U1-Pad10)*%
X81280000Y-51308000D02*
X77724000Y-54864000D01*
X81280000Y-47752000D02*
X81280000Y-51308000D01*
%TO.N,Net-(U1-Pad1)*%
X105156000Y-60256238D02*
X104648000Y-59748238D01*
X105156000Y-63500000D02*
X105156000Y-60256238D01*
X104648000Y-59748238D02*
X104648000Y-58420000D01*
X104648000Y-58420000D02*
X103124000Y-56896000D01*
X101092000Y-56896000D02*
X100584000Y-57404000D01*
X103124000Y-56896000D02*
X101092000Y-56896000D01*
%TD*%
D18*
%TO.N,GND*%
X75299079Y-40843649D02*
X74365062Y-41113107D01*
X73501560Y-41559606D01*
X73388946Y-41634851D01*
X72896787Y-42237182D01*
X76200000Y-45540395D01*
X79503213Y-42237182D01*
X79011054Y-41634851D01*
X78160067Y-41164937D01*
X77233757Y-40870071D01*
X76315930Y-40767000D01*
X105667814Y-40767000D01*
X104763079Y-40843649D01*
X103829062Y-41113107D01*
X102965560Y-41559606D01*
X102852946Y-41634851D01*
X102360787Y-42237182D01*
X105664000Y-45540395D01*
X108967213Y-42237182D01*
X108475054Y-41634851D01*
X107624067Y-41164937D01*
X106697757Y-40870071D01*
X105779930Y-40767000D01*
X110617000Y-40767000D01*
X110617000Y-45723814D01*
X110540351Y-44819079D01*
X110270893Y-43885062D01*
X109824394Y-43021560D01*
X109749149Y-42908946D01*
X109146818Y-42416787D01*
X105843605Y-45720000D01*
X109146818Y-49023213D01*
X109749149Y-48531054D01*
X110219063Y-47680067D01*
X110513929Y-46753757D01*
X110617000Y-45835930D01*
X110617000Y-77219814D01*
X110540351Y-76315079D01*
X110270893Y-75381062D01*
X109824394Y-74517560D01*
X109749149Y-74404946D01*
X109146818Y-73912787D01*
X105843605Y-77216000D01*
X109146818Y-80519213D01*
X109749149Y-80027054D01*
X110219063Y-79176067D01*
X110513929Y-78249757D01*
X110617000Y-77331930D01*
X110617000Y-81661000D01*
X107812029Y-81661000D01*
X108362440Y-81376394D01*
X108475054Y-81301149D01*
X108967213Y-80698818D01*
X105664000Y-77395605D01*
X102360787Y-80698818D01*
X102852946Y-81301149D01*
X103504615Y-81661000D01*
X77840029Y-81661000D01*
X78390440Y-81376394D01*
X78503054Y-81301149D01*
X78995213Y-80698818D01*
X75692000Y-77395605D01*
X72388787Y-80698818D01*
X72880946Y-81301149D01*
X73532615Y-81661000D01*
X71247000Y-81661000D01*
X71247000Y-79364029D01*
X71531606Y-79914440D01*
X71606851Y-80027054D01*
X72209182Y-80519213D01*
X75512395Y-77216000D01*
X75871605Y-77216000D01*
X79174818Y-80519213D01*
X79777149Y-80027054D01*
X80247063Y-79176067D01*
X80541929Y-78249757D01*
X80650414Y-77283719D01*
X80638940Y-77148281D01*
X100705586Y-77148281D01*
X100787649Y-78116921D01*
X101057107Y-79050938D01*
X101503606Y-79914440D01*
X101578851Y-80027054D01*
X102181182Y-80519213D01*
X105484395Y-77216000D01*
X102181182Y-73912787D01*
X101578851Y-74404946D01*
X101108937Y-75255933D01*
X100814071Y-76182243D01*
X100705586Y-77148281D01*
X80638940Y-77148281D01*
X80568351Y-76315079D01*
X80298893Y-75381062D01*
X79852394Y-74517560D01*
X79777149Y-74404946D01*
X79174818Y-73912787D01*
X75871605Y-77216000D01*
X75512395Y-77216000D01*
X72209182Y-73912787D01*
X71606851Y-74404946D01*
X71247000Y-75056615D01*
X71247000Y-73733182D01*
X72388787Y-73733182D01*
X75692000Y-77036395D01*
X78995213Y-73733182D01*
X102360787Y-73733182D01*
X105664000Y-77036395D01*
X108967213Y-73733182D01*
X108475054Y-73130851D01*
X107624067Y-72660937D01*
X106697757Y-72366071D01*
X105731719Y-72257586D01*
X104763079Y-72339649D01*
X103829062Y-72609107D01*
X102965560Y-73055606D01*
X102852946Y-73130851D01*
X102360787Y-73733182D01*
X78995213Y-73733182D01*
X78503054Y-73130851D01*
X77652067Y-72660937D01*
X76725757Y-72366071D01*
X75759719Y-72257586D01*
X74791079Y-72339649D01*
X73857062Y-72609107D01*
X72993560Y-73055606D01*
X72880946Y-73130851D01*
X72388787Y-73733182D01*
X71247000Y-73733182D01*
X71247000Y-70401400D01*
X71884090Y-70401400D01*
X71914762Y-70502528D01*
X72022527Y-70735629D01*
X72173697Y-70943227D01*
X72362463Y-71117344D01*
X72581570Y-71251289D01*
X72822599Y-71339915D01*
X73025000Y-71217085D01*
X73025000Y-70199000D01*
X73279000Y-70199000D01*
X73279000Y-71217085D01*
X73481401Y-71339915D01*
X73722430Y-71251289D01*
X73941537Y-71117344D01*
X74130303Y-70943227D01*
X74281473Y-70735629D01*
X74389238Y-70502528D01*
X74419910Y-70401400D01*
X74296224Y-70199000D01*
X73279000Y-70199000D01*
X73025000Y-70199000D01*
X72007776Y-70199000D01*
X71884090Y-70401400D01*
X71247000Y-70401400D01*
X71247000Y-67397000D01*
X71838928Y-67397000D01*
X71838928Y-68747000D01*
X71851188Y-68871482D01*
X71887498Y-68991180D01*
X71946463Y-69101494D01*
X72025815Y-69198185D01*
X72119559Y-69275119D01*
X72022527Y-69408371D01*
X71914762Y-69641472D01*
X71884090Y-69742600D01*
X72007776Y-69945000D01*
X73025000Y-69945000D01*
X73025000Y-69925000D01*
X73279000Y-69925000D01*
X73279000Y-69945000D01*
X74296224Y-69945000D01*
X74419910Y-69742600D01*
X74389238Y-69641472D01*
X74281473Y-69408371D01*
X74184441Y-69275119D01*
X74278185Y-69198185D01*
X74357537Y-69101494D01*
X74416502Y-68991180D01*
X74452812Y-68871482D01*
X74465072Y-68747000D01*
X74465072Y-67397000D01*
X74452812Y-67272518D01*
X74416502Y-67152820D01*
X74357537Y-67042506D01*
X74278185Y-66945815D01*
X74181494Y-66866463D01*
X74071180Y-66807498D01*
X73951482Y-66771188D01*
X73827000Y-66758928D01*
X72477000Y-66758928D01*
X72352518Y-66771188D01*
X72232820Y-66807498D01*
X72122506Y-66866463D01*
X72025815Y-66945815D01*
X71946463Y-67042506D01*
X71887498Y-67152820D01*
X71851188Y-67272518D01*
X71838928Y-67397000D01*
X71247000Y-67397000D01*
X71247000Y-56221000D01*
X71838928Y-56221000D01*
X71838928Y-57571000D01*
X71851188Y-57695482D01*
X71887498Y-57815180D01*
X71946463Y-57925494D01*
X72025815Y-58022185D01*
X72112697Y-58093487D01*
X71991093Y-58275482D01*
X71892342Y-58513887D01*
X71842000Y-58766976D01*
X71842000Y-59025024D01*
X71892342Y-59278113D01*
X71991093Y-59516518D01*
X72134456Y-59731077D01*
X72299379Y-59896000D01*
X72134456Y-60060923D01*
X71991093Y-60275482D01*
X71892342Y-60513887D01*
X71842000Y-60766976D01*
X71842000Y-61025024D01*
X71892342Y-61278113D01*
X71991093Y-61516518D01*
X72134456Y-61731077D01*
X72299379Y-61896000D01*
X72134456Y-62060923D01*
X71991093Y-62275482D01*
X71892342Y-62513887D01*
X71842000Y-62766976D01*
X71842000Y-63025024D01*
X71892342Y-63278113D01*
X71991093Y-63516518D01*
X72134456Y-63731077D01*
X72316923Y-63913544D01*
X72531482Y-64056907D01*
X72769887Y-64155658D01*
X73022976Y-64206000D01*
X73281024Y-64206000D01*
X73534113Y-64155658D01*
X73772518Y-64056907D01*
X73987077Y-63913544D01*
X74169544Y-63731077D01*
X74312907Y-63516518D01*
X74411658Y-63278113D01*
X74462000Y-63025024D01*
X74462000Y-62766976D01*
X74411658Y-62513887D01*
X74312907Y-62275482D01*
X74169544Y-62060923D01*
X74004621Y-61896000D01*
X74169544Y-61731077D01*
X74312907Y-61516518D01*
X74411658Y-61278113D01*
X74462000Y-61025024D01*
X74462000Y-60766976D01*
X74411658Y-60513887D01*
X74312907Y-60275482D01*
X74169544Y-60060923D01*
X74004621Y-59896000D01*
X74169544Y-59731077D01*
X74312907Y-59516518D01*
X74411658Y-59278113D01*
X74462000Y-59025024D01*
X74462000Y-58766976D01*
X74411658Y-58513887D01*
X74312907Y-58275482D01*
X74191303Y-58093487D01*
X74278185Y-58022185D01*
X74357537Y-57925494D01*
X74416502Y-57815180D01*
X74452812Y-57695482D01*
X74465072Y-57571000D01*
X74465072Y-56221000D01*
X74452812Y-56096518D01*
X74416502Y-55976820D01*
X74357537Y-55866506D01*
X74278185Y-55769815D01*
X74181494Y-55690463D01*
X74071180Y-55631498D01*
X73951482Y-55595188D01*
X73827000Y-55582928D01*
X72477000Y-55582928D01*
X72352518Y-55595188D01*
X72232820Y-55631498D01*
X72122506Y-55690463D01*
X72025815Y-55769815D01*
X71946463Y-55866506D01*
X71887498Y-55976820D01*
X71851188Y-56096518D01*
X71838928Y-56221000D01*
X71247000Y-56221000D01*
X71247000Y-52182665D01*
X76289000Y-52182665D01*
X76289000Y-52465335D01*
X76344147Y-52742574D01*
X76452320Y-53003727D01*
X76609363Y-53238759D01*
X76809241Y-53438637D01*
X77041759Y-53594000D01*
X76809241Y-53749363D01*
X76609363Y-53949241D01*
X76452320Y-54184273D01*
X76344147Y-54445426D01*
X76289000Y-54722665D01*
X76289000Y-55005335D01*
X76344147Y-55282574D01*
X76452320Y-55543727D01*
X76609363Y-55778759D01*
X76809241Y-55978637D01*
X77041759Y-56134000D01*
X76809241Y-56289363D01*
X76609363Y-56489241D01*
X76452320Y-56724273D01*
X76344147Y-56985426D01*
X76289000Y-57262665D01*
X76289000Y-57545335D01*
X76344147Y-57822574D01*
X76452320Y-58083727D01*
X76609363Y-58318759D01*
X76809241Y-58518637D01*
X77041759Y-58674000D01*
X76809241Y-58829363D01*
X76609363Y-59029241D01*
X76452320Y-59264273D01*
X76344147Y-59525426D01*
X76289000Y-59802665D01*
X76289000Y-60085335D01*
X76344147Y-60362574D01*
X76452320Y-60623727D01*
X76609363Y-60858759D01*
X76809241Y-61058637D01*
X77041759Y-61214000D01*
X76809241Y-61369363D01*
X76609363Y-61569241D01*
X76452320Y-61804273D01*
X76344147Y-62065426D01*
X76289000Y-62342665D01*
X76289000Y-62625335D01*
X76344147Y-62902574D01*
X76452320Y-63163727D01*
X76609363Y-63398759D01*
X76809241Y-63598637D01*
X77041759Y-63754000D01*
X76809241Y-63909363D01*
X76609363Y-64109241D01*
X76452320Y-64344273D01*
X76344147Y-64605426D01*
X76289000Y-64882665D01*
X76289000Y-65165335D01*
X76344147Y-65442574D01*
X76452320Y-65703727D01*
X76609363Y-65938759D01*
X76809241Y-66138637D01*
X77041759Y-66294000D01*
X76809241Y-66449363D01*
X76609363Y-66649241D01*
X76452320Y-66884273D01*
X76344147Y-67145426D01*
X76289000Y-67422665D01*
X76289000Y-67705335D01*
X76344147Y-67982574D01*
X76452320Y-68243727D01*
X76609363Y-68478759D01*
X76809241Y-68678637D01*
X77041759Y-68834000D01*
X76809241Y-68989363D01*
X76609363Y-69189241D01*
X76452320Y-69424273D01*
X76344147Y-69685426D01*
X76289000Y-69962665D01*
X76289000Y-70245335D01*
X76344147Y-70522574D01*
X76452320Y-70783727D01*
X76609363Y-71018759D01*
X76809241Y-71218637D01*
X77044273Y-71375680D01*
X77305426Y-71483853D01*
X77582665Y-71539000D01*
X77865335Y-71539000D01*
X78142574Y-71483853D01*
X78403727Y-71375680D01*
X78638759Y-71218637D01*
X78838637Y-71018759D01*
X78995680Y-70783727D01*
X79103853Y-70522574D01*
X79159000Y-70245335D01*
X79159000Y-69962665D01*
X79103853Y-69685426D01*
X78995680Y-69424273D01*
X78915317Y-69304000D01*
X83905928Y-69304000D01*
X83905928Y-70904000D01*
X83918188Y-71028482D01*
X83954498Y-71148180D01*
X84013463Y-71258494D01*
X84092815Y-71355185D01*
X84189506Y-71434537D01*
X84299820Y-71493502D01*
X84419518Y-71529812D01*
X84544000Y-71542072D01*
X86144000Y-71542072D01*
X86268482Y-71529812D01*
X86388180Y-71493502D01*
X86498494Y-71434537D01*
X86595185Y-71355185D01*
X86674537Y-71258494D01*
X86733502Y-71148180D01*
X86769812Y-71028482D01*
X86782072Y-70904000D01*
X86782072Y-69304000D01*
X86769812Y-69179518D01*
X86733502Y-69059820D01*
X86674537Y-68949506D01*
X86595185Y-68852815D01*
X86498494Y-68773463D01*
X86388180Y-68714498D01*
X86268482Y-68678188D01*
X86260039Y-68677357D01*
X86458637Y-68478759D01*
X86615680Y-68243727D01*
X86723853Y-67982574D01*
X86779000Y-67705335D01*
X86779000Y-67422665D01*
X86723853Y-67145426D01*
X86615680Y-66884273D01*
X86458637Y-66649241D01*
X86258759Y-66449363D01*
X86026241Y-66294000D01*
X86258759Y-66138637D01*
X86458637Y-65938759D01*
X86615680Y-65703727D01*
X86723853Y-65442574D01*
X86779000Y-65165335D01*
X86779000Y-64882665D01*
X86723853Y-64605426D01*
X86615680Y-64344273D01*
X86458637Y-64109241D01*
X86258759Y-63909363D01*
X86026241Y-63754000D01*
X86258759Y-63598637D01*
X86458637Y-63398759D01*
X86615680Y-63163727D01*
X86723853Y-62902574D01*
X86779000Y-62625335D01*
X86779000Y-62342665D01*
X86723853Y-62065426D01*
X86615680Y-61804273D01*
X86458637Y-61569241D01*
X86258759Y-61369363D01*
X86026241Y-61214000D01*
X86258759Y-61058637D01*
X86458637Y-60858759D01*
X86482925Y-60822408D01*
X91059000Y-60822408D01*
X91059000Y-61097592D01*
X91112686Y-61367490D01*
X91217995Y-61621727D01*
X91370880Y-61850535D01*
X91565465Y-62045120D01*
X91794273Y-62198005D01*
X91810017Y-62204526D01*
X91725995Y-62330273D01*
X91620686Y-62584510D01*
X91567000Y-62854408D01*
X91567000Y-63129592D01*
X91620686Y-63399490D01*
X91725995Y-63653727D01*
X91878880Y-63882535D01*
X92073465Y-64077120D01*
X92302273Y-64230005D01*
X92556510Y-64335314D01*
X92826408Y-64389000D01*
X93091000Y-64389000D01*
X93091000Y-64653592D01*
X93144686Y-64923490D01*
X93249995Y-65177727D01*
X93402880Y-65406535D01*
X93597465Y-65601120D01*
X93826273Y-65754005D01*
X94080510Y-65859314D01*
X94350408Y-65913000D01*
X94625592Y-65913000D01*
X94895490Y-65859314D01*
X95140547Y-65757807D01*
X95176686Y-65939490D01*
X95281995Y-66193727D01*
X95434880Y-66422535D01*
X95629465Y-66617120D01*
X95858273Y-66770005D01*
X96112510Y-66875314D01*
X96382408Y-66929000D01*
X96657592Y-66929000D01*
X96927490Y-66875314D01*
X97181727Y-66770005D01*
X97410535Y-66617120D01*
X97536000Y-66491655D01*
X97661465Y-66617120D01*
X97890273Y-66770005D01*
X98144510Y-66875314D01*
X98414408Y-66929000D01*
X98689592Y-66929000D01*
X98959490Y-66875314D01*
X99213727Y-66770005D01*
X99442535Y-66617120D01*
X99637120Y-66422535D01*
X99790005Y-66193727D01*
X99895314Y-65939490D01*
X99931453Y-65757807D01*
X100176510Y-65859314D01*
X100446408Y-65913000D01*
X100721592Y-65913000D01*
X100991490Y-65859314D01*
X101245727Y-65754005D01*
X101474535Y-65601120D01*
X101669120Y-65406535D01*
X101822005Y-65177727D01*
X101927314Y-64923490D01*
X101981000Y-64653592D01*
X101981000Y-64389000D01*
X102245592Y-64389000D01*
X102515490Y-64335314D01*
X102769727Y-64230005D01*
X102998535Y-64077120D01*
X103193120Y-63882535D01*
X103346005Y-63653727D01*
X103451314Y-63399490D01*
X103505000Y-63129592D01*
X103505000Y-62854408D01*
X103451314Y-62584510D01*
X103346005Y-62330273D01*
X103193120Y-62101465D01*
X102998535Y-61906880D01*
X102769727Y-61753995D01*
X102515490Y-61648686D01*
X102245592Y-61595000D01*
X101970408Y-61595000D01*
X101700510Y-61648686D01*
X101446273Y-61753995D01*
X101217465Y-61906880D01*
X101022880Y-62101465D01*
X100869995Y-62330273D01*
X100764686Y-62584510D01*
X100711000Y-62854408D01*
X100711000Y-63119000D01*
X100446408Y-63119000D01*
X100176510Y-63172686D01*
X99922273Y-63277995D01*
X99693465Y-63430880D01*
X99498880Y-63625465D01*
X99345995Y-63854273D01*
X99240686Y-64108510D01*
X99204547Y-64290193D01*
X98959490Y-64188686D01*
X98689592Y-64135000D01*
X98414408Y-64135000D01*
X98144510Y-64188686D01*
X97890273Y-64293995D01*
X97661465Y-64446880D01*
X97536000Y-64572345D01*
X97410535Y-64446880D01*
X97181727Y-64293995D01*
X96927490Y-64188686D01*
X96657592Y-64135000D01*
X96382408Y-64135000D01*
X96112510Y-64188686D01*
X95867453Y-64290193D01*
X95831314Y-64108510D01*
X95726005Y-63854273D01*
X95573120Y-63625465D01*
X95378535Y-63430880D01*
X95149727Y-63277995D01*
X94895490Y-63172686D01*
X94625592Y-63119000D01*
X94361000Y-63119000D01*
X94361000Y-62854408D01*
X94307314Y-62584510D01*
X94202005Y-62330273D01*
X94049120Y-62101465D01*
X93854535Y-61906880D01*
X93625727Y-61753995D01*
X93609983Y-61747474D01*
X93694005Y-61621727D01*
X93799314Y-61367490D01*
X93853000Y-61097592D01*
X93853000Y-60822408D01*
X93799314Y-60552510D01*
X93694005Y-60298273D01*
X93609983Y-60172526D01*
X93625727Y-60166005D01*
X93854535Y-60013120D01*
X94049120Y-59818535D01*
X94202005Y-59589727D01*
X94307314Y-59335490D01*
X94361000Y-59065592D01*
X94361000Y-58801000D01*
X94625592Y-58801000D01*
X94895490Y-58747314D01*
X95149727Y-58642005D01*
X95378535Y-58489120D01*
X95573120Y-58294535D01*
X95726005Y-58065727D01*
X95831314Y-57811490D01*
X95867453Y-57629807D01*
X96112510Y-57731314D01*
X96382408Y-57785000D01*
X96657592Y-57785000D01*
X96927490Y-57731314D01*
X97181727Y-57626005D01*
X97410535Y-57473120D01*
X97536000Y-57347655D01*
X97661465Y-57473120D01*
X97890273Y-57626005D01*
X98144510Y-57731314D01*
X98414408Y-57785000D01*
X98689592Y-57785000D01*
X98959490Y-57731314D01*
X99204547Y-57629807D01*
X99240686Y-57811490D01*
X99345995Y-58065727D01*
X99498880Y-58294535D01*
X99693465Y-58489120D01*
X99922273Y-58642005D01*
X100176510Y-58747314D01*
X100446408Y-58801000D01*
X100711000Y-58801000D01*
X100711000Y-59065592D01*
X100764686Y-59335490D01*
X100869995Y-59589727D01*
X101022880Y-59818535D01*
X101217465Y-60013120D01*
X101446273Y-60166005D01*
X101700510Y-60271314D01*
X101970408Y-60325000D01*
X102245592Y-60325000D01*
X102515490Y-60271314D01*
X102769727Y-60166005D01*
X102998535Y-60013120D01*
X103193120Y-59818535D01*
X103346005Y-59589727D01*
X103451314Y-59335490D01*
X103505000Y-59065592D01*
X103505000Y-58790408D01*
X103451314Y-58520510D01*
X103369057Y-58321924D01*
X103813001Y-58765869D01*
X103813000Y-59707219D01*
X103808960Y-59748238D01*
X103813000Y-59789256D01*
X103825082Y-59911926D01*
X103872828Y-60069324D01*
X103950364Y-60214383D01*
X104054709Y-60341529D01*
X104086579Y-60367684D01*
X104321001Y-60602106D01*
X104321000Y-62729868D01*
X104274388Y-62776480D01*
X104150176Y-62962376D01*
X104064617Y-63168933D01*
X104021000Y-63388212D01*
X104021000Y-63611788D01*
X104064617Y-63831067D01*
X104150176Y-64037624D01*
X104274388Y-64223520D01*
X104432480Y-64381612D01*
X104618376Y-64505824D01*
X104824933Y-64591383D01*
X105044212Y-64635000D01*
X105267788Y-64635000D01*
X105487067Y-64591383D01*
X105693624Y-64505824D01*
X105879520Y-64381612D01*
X106037612Y-64223520D01*
X106161824Y-64037624D01*
X106247383Y-63831067D01*
X106291000Y-63611788D01*
X106291000Y-63388212D01*
X106247383Y-63168933D01*
X106161824Y-62962376D01*
X106037612Y-62776480D01*
X105991000Y-62729868D01*
X105991000Y-62273400D01*
X106936090Y-62273400D01*
X106966762Y-62374528D01*
X107074527Y-62607629D01*
X107225697Y-62815227D01*
X107414463Y-62989344D01*
X107633570Y-63123289D01*
X107874599Y-63211915D01*
X108077000Y-63089085D01*
X108077000Y-62071000D01*
X108331000Y-62071000D01*
X108331000Y-63089085D01*
X108533401Y-63211915D01*
X108774430Y-63123289D01*
X108993537Y-62989344D01*
X109182303Y-62815227D01*
X109333473Y-62607629D01*
X109441238Y-62374528D01*
X109471910Y-62273400D01*
X109348224Y-62071000D01*
X108331000Y-62071000D01*
X108077000Y-62071000D01*
X107059776Y-62071000D01*
X106936090Y-62273400D01*
X105991000Y-62273400D01*
X105991000Y-60297245D01*
X105995039Y-60256237D01*
X105991000Y-60215229D01*
X105991000Y-60215219D01*
X105978918Y-60092549D01*
X105931172Y-59935151D01*
X105853636Y-59790092D01*
X105749291Y-59662947D01*
X105717421Y-59636792D01*
X105483000Y-59402371D01*
X105483000Y-59269000D01*
X106890928Y-59269000D01*
X106890928Y-60619000D01*
X106903188Y-60743482D01*
X106939498Y-60863180D01*
X106998463Y-60973494D01*
X107077815Y-61070185D01*
X107171559Y-61147119D01*
X107074527Y-61280371D01*
X106966762Y-61513472D01*
X106936090Y-61614600D01*
X107059776Y-61817000D01*
X108077000Y-61817000D01*
X108077000Y-61797000D01*
X108331000Y-61797000D01*
X108331000Y-61817000D01*
X109348224Y-61817000D01*
X109471910Y-61614600D01*
X109441238Y-61513472D01*
X109333473Y-61280371D01*
X109236441Y-61147119D01*
X109330185Y-61070185D01*
X109409537Y-60973494D01*
X109468502Y-60863180D01*
X109504812Y-60743482D01*
X109517072Y-60619000D01*
X109517072Y-59269000D01*
X109504812Y-59144518D01*
X109468502Y-59024820D01*
X109409537Y-58914506D01*
X109330185Y-58817815D01*
X109233494Y-58738463D01*
X109123180Y-58679498D01*
X109003482Y-58643188D01*
X108879000Y-58630928D01*
X107529000Y-58630928D01*
X107404518Y-58643188D01*
X107284820Y-58679498D01*
X107174506Y-58738463D01*
X107077815Y-58817815D01*
X106998463Y-58914506D01*
X106939498Y-59024820D01*
X106903188Y-59144518D01*
X106890928Y-59269000D01*
X105483000Y-59269000D01*
X105483000Y-58461007D01*
X105487039Y-58419999D01*
X105483000Y-58378991D01*
X105483000Y-58378981D01*
X105470918Y-58256311D01*
X105423172Y-58098913D01*
X105345636Y-57953854D01*
X105241291Y-57826709D01*
X105209426Y-57800559D01*
X103743446Y-56334579D01*
X103717291Y-56302709D01*
X103590146Y-56198364D01*
X103445087Y-56120828D01*
X103287689Y-56073082D01*
X103165019Y-56061000D01*
X103165018Y-56061000D01*
X103124000Y-56056960D01*
X103082982Y-56061000D01*
X101133007Y-56061000D01*
X101091999Y-56056961D01*
X101050991Y-56061000D01*
X101050981Y-56061000D01*
X101003531Y-56065673D01*
X100991490Y-56060686D01*
X100721592Y-56007000D01*
X100446408Y-56007000D01*
X100176510Y-56060686D01*
X99931453Y-56162193D01*
X99895314Y-55980510D01*
X99790005Y-55726273D01*
X99637120Y-55497465D01*
X99442535Y-55302880D01*
X99213727Y-55149995D01*
X98959490Y-55044686D01*
X98689592Y-54991000D01*
X98414408Y-54991000D01*
X98144510Y-55044686D01*
X97890273Y-55149995D01*
X97661465Y-55302880D01*
X97536000Y-55428345D01*
X97410535Y-55302880D01*
X97181727Y-55149995D01*
X96927490Y-55044686D01*
X96657592Y-54991000D01*
X96382408Y-54991000D01*
X96112510Y-55044686D01*
X95858273Y-55149995D01*
X95629465Y-55302880D01*
X95434880Y-55497465D01*
X95281995Y-55726273D01*
X95176686Y-55980510D01*
X95140547Y-56162193D01*
X94895490Y-56060686D01*
X94625592Y-56007000D01*
X94350408Y-56007000D01*
X94080510Y-56060686D01*
X93826273Y-56165995D01*
X93597465Y-56318880D01*
X93402880Y-56513465D01*
X93249995Y-56742273D01*
X93144686Y-56996510D01*
X93091000Y-57266408D01*
X93091000Y-57531000D01*
X92826408Y-57531000D01*
X92556510Y-57584686D01*
X92302273Y-57689995D01*
X92073465Y-57842880D01*
X91878880Y-58037465D01*
X91725995Y-58266273D01*
X91620686Y-58520510D01*
X91567000Y-58790408D01*
X91567000Y-59065592D01*
X91620686Y-59335490D01*
X91725995Y-59589727D01*
X91810017Y-59715474D01*
X91794273Y-59721995D01*
X91565465Y-59874880D01*
X91370880Y-60069465D01*
X91217995Y-60298273D01*
X91112686Y-60552510D01*
X91059000Y-60822408D01*
X86482925Y-60822408D01*
X86615680Y-60623727D01*
X86723853Y-60362574D01*
X86779000Y-60085335D01*
X86779000Y-59802665D01*
X86723853Y-59525426D01*
X86615680Y-59264273D01*
X86458637Y-59029241D01*
X86258759Y-58829363D01*
X86026241Y-58674000D01*
X86258759Y-58518637D01*
X86458637Y-58318759D01*
X86615680Y-58083727D01*
X86723853Y-57822574D01*
X86779000Y-57545335D01*
X86779000Y-57262665D01*
X86723853Y-56985426D01*
X86615680Y-56724273D01*
X86458637Y-56489241D01*
X86258759Y-56289363D01*
X86026241Y-56134000D01*
X86258759Y-55978637D01*
X86458637Y-55778759D01*
X86615680Y-55543727D01*
X86723853Y-55282574D01*
X86779000Y-55005335D01*
X86779000Y-54722665D01*
X86723853Y-54445426D01*
X86615680Y-54184273D01*
X86458637Y-53949241D01*
X86258759Y-53749363D01*
X86023727Y-53592320D01*
X86013135Y-53587933D01*
X86199131Y-53476385D01*
X86407519Y-53287414D01*
X86575037Y-53061420D01*
X86695246Y-52807087D01*
X86735904Y-52673039D01*
X86613915Y-52451000D01*
X85471000Y-52451000D01*
X85471000Y-52471000D01*
X85217000Y-52471000D01*
X85217000Y-52451000D01*
X84074085Y-52451000D01*
X83952096Y-52673039D01*
X83992754Y-52807087D01*
X84112963Y-53061420D01*
X84280481Y-53287414D01*
X84488869Y-53476385D01*
X84674865Y-53587933D01*
X84664273Y-53592320D01*
X84429241Y-53749363D01*
X84229363Y-53949241D01*
X84072320Y-54184273D01*
X83964147Y-54445426D01*
X83909000Y-54722665D01*
X83909000Y-55005335D01*
X83964147Y-55282574D01*
X84072320Y-55543727D01*
X84229363Y-55778759D01*
X84429241Y-55978637D01*
X84661759Y-56134000D01*
X84429241Y-56289363D01*
X84229363Y-56489241D01*
X84072320Y-56724273D01*
X83964147Y-56985426D01*
X83909000Y-57262665D01*
X83909000Y-57545335D01*
X83964147Y-57822574D01*
X84072320Y-58083727D01*
X84229363Y-58318759D01*
X84429241Y-58518637D01*
X84661759Y-58674000D01*
X84429241Y-58829363D01*
X84229363Y-59029241D01*
X84072320Y-59264273D01*
X83964147Y-59525426D01*
X83909000Y-59802665D01*
X83909000Y-60085335D01*
X83964147Y-60362574D01*
X84072320Y-60623727D01*
X84229363Y-60858759D01*
X84429241Y-61058637D01*
X84661759Y-61214000D01*
X84429241Y-61369363D01*
X84229363Y-61569241D01*
X84072320Y-61804273D01*
X83964147Y-62065426D01*
X83909000Y-62342665D01*
X83909000Y-62625335D01*
X83964147Y-62902574D01*
X84072320Y-63163727D01*
X84229363Y-63398759D01*
X84429241Y-63598637D01*
X84661759Y-63754000D01*
X84429241Y-63909363D01*
X84229363Y-64109241D01*
X84072320Y-64344273D01*
X83964147Y-64605426D01*
X83909000Y-64882665D01*
X83909000Y-65165335D01*
X83964147Y-65442574D01*
X84072320Y-65703727D01*
X84229363Y-65938759D01*
X84429241Y-66138637D01*
X84661759Y-66294000D01*
X84429241Y-66449363D01*
X84229363Y-66649241D01*
X84072320Y-66884273D01*
X83964147Y-67145426D01*
X83909000Y-67422665D01*
X83909000Y-67705335D01*
X83964147Y-67982574D01*
X84072320Y-68243727D01*
X84229363Y-68478759D01*
X84427961Y-68677357D01*
X84419518Y-68678188D01*
X84299820Y-68714498D01*
X84189506Y-68773463D01*
X84092815Y-68852815D01*
X84013463Y-68949506D01*
X83954498Y-69059820D01*
X83918188Y-69179518D01*
X83905928Y-69304000D01*
X78915317Y-69304000D01*
X78838637Y-69189241D01*
X78638759Y-68989363D01*
X78406241Y-68834000D01*
X78638759Y-68678637D01*
X78838637Y-68478759D01*
X78995680Y-68243727D01*
X79103853Y-67982574D01*
X79159000Y-67705335D01*
X79159000Y-67422665D01*
X79103853Y-67145426D01*
X78995680Y-66884273D01*
X78838637Y-66649241D01*
X78638759Y-66449363D01*
X78406241Y-66294000D01*
X78638759Y-66138637D01*
X78838637Y-65938759D01*
X78995680Y-65703727D01*
X79103853Y-65442574D01*
X79159000Y-65165335D01*
X79159000Y-64882665D01*
X79103853Y-64605426D01*
X78995680Y-64344273D01*
X78838637Y-64109241D01*
X78638759Y-63909363D01*
X78406241Y-63754000D01*
X78638759Y-63598637D01*
X78838637Y-63398759D01*
X78995680Y-63163727D01*
X79103853Y-62902574D01*
X79159000Y-62625335D01*
X79159000Y-62342665D01*
X79103853Y-62065426D01*
X78995680Y-61804273D01*
X78838637Y-61569241D01*
X78638759Y-61369363D01*
X78406241Y-61214000D01*
X78638759Y-61058637D01*
X78838637Y-60858759D01*
X78995680Y-60623727D01*
X79103853Y-60362574D01*
X79159000Y-60085335D01*
X79159000Y-59802665D01*
X79103853Y-59525426D01*
X78995680Y-59264273D01*
X78838637Y-59029241D01*
X78638759Y-58829363D01*
X78406241Y-58674000D01*
X78638759Y-58518637D01*
X78838637Y-58318759D01*
X78995680Y-58083727D01*
X79103853Y-57822574D01*
X79159000Y-57545335D01*
X79159000Y-57262665D01*
X79140285Y-57168582D01*
X82857427Y-53451441D01*
X82889291Y-53425291D01*
X82993636Y-53298146D01*
X83071172Y-53153087D01*
X83118918Y-52995689D01*
X83131000Y-52873019D01*
X83131000Y-52873009D01*
X83135039Y-52832001D01*
X83131000Y-52790993D01*
X83131000Y-51974961D01*
X83952096Y-51974961D01*
X84074085Y-52197000D01*
X85217000Y-52197000D01*
X85217000Y-51053376D01*
X85471000Y-51053376D01*
X85471000Y-52197000D01*
X86613915Y-52197000D01*
X86735904Y-51974961D01*
X86695246Y-51840913D01*
X86575037Y-51586580D01*
X86407519Y-51360586D01*
X86199131Y-51171615D01*
X85957881Y-51026930D01*
X85693040Y-50932091D01*
X85471000Y-51053376D01*
X85217000Y-51053376D01*
X84994960Y-50932091D01*
X84730119Y-51026930D01*
X84488869Y-51171615D01*
X84280481Y-51360586D01*
X84112963Y-51586580D01*
X83992754Y-51840913D01*
X83952096Y-51974961D01*
X83131000Y-51974961D01*
X83131000Y-50637867D01*
X84381426Y-49387441D01*
X84413291Y-49361291D01*
X84517636Y-49234146D01*
X84534381Y-49202818D01*
X102360787Y-49202818D01*
X102852946Y-49805149D01*
X103703933Y-50275063D01*
X104630243Y-50569929D01*
X105596281Y-50678414D01*
X106564921Y-50596351D01*
X107498938Y-50326893D01*
X108362440Y-49880394D01*
X108475054Y-49805149D01*
X108967213Y-49202818D01*
X105664000Y-45899605D01*
X102360787Y-49202818D01*
X84534381Y-49202818D01*
X84595172Y-49089087D01*
X84642918Y-48931689D01*
X84655000Y-48809019D01*
X84655000Y-48809009D01*
X84659039Y-48768001D01*
X84655000Y-48726993D01*
X84655000Y-47506132D01*
X84701612Y-47459520D01*
X84825824Y-47273624D01*
X84911383Y-47067067D01*
X84955000Y-46847788D01*
X84955000Y-46624212D01*
X84911383Y-46404933D01*
X84825824Y-46198376D01*
X84701612Y-46012480D01*
X84543520Y-45854388D01*
X84357624Y-45730176D01*
X84169570Y-45652281D01*
X100705586Y-45652281D01*
X100787649Y-46620921D01*
X101057107Y-47554938D01*
X101503606Y-48418440D01*
X101578851Y-48531054D01*
X102181182Y-49023213D01*
X105484395Y-45720000D01*
X102181182Y-42416787D01*
X101578851Y-42908946D01*
X101108937Y-43759933D01*
X100814071Y-44686243D01*
X100705586Y-45652281D01*
X84169570Y-45652281D01*
X84151067Y-45644617D01*
X83931788Y-45601000D01*
X83708212Y-45601000D01*
X83488933Y-45644617D01*
X83282376Y-45730176D01*
X83096480Y-45854388D01*
X82938388Y-46012480D01*
X82814176Y-46198376D01*
X82728617Y-46404933D01*
X82685000Y-46624212D01*
X82685000Y-46847788D01*
X82728617Y-47067067D01*
X82814176Y-47273624D01*
X82938388Y-47459520D01*
X82985000Y-47506132D01*
X82985001Y-48422131D01*
X82115000Y-49292133D01*
X82115000Y-48522132D01*
X82161612Y-48475520D01*
X82285824Y-48289624D01*
X82371383Y-48083067D01*
X82415000Y-47863788D01*
X82415000Y-47640212D01*
X82371383Y-47420933D01*
X82285824Y-47214376D01*
X82161612Y-47028480D01*
X82003520Y-46870388D01*
X81817624Y-46746176D01*
X81611067Y-46660617D01*
X81391788Y-46617000D01*
X81168212Y-46617000D01*
X81062935Y-46637941D01*
X81158414Y-45787719D01*
X81076351Y-44819079D01*
X80806893Y-43885062D01*
X80360394Y-43021560D01*
X80285149Y-42908946D01*
X79682818Y-42416787D01*
X76379605Y-45720000D01*
X79682818Y-49023213D01*
X80285149Y-48531054D01*
X80353178Y-48407858D01*
X80398388Y-48475520D01*
X80445000Y-48522132D01*
X80445001Y-50962131D01*
X79159000Y-52248132D01*
X79159000Y-52182665D01*
X79103853Y-51905426D01*
X78995680Y-51644273D01*
X78838637Y-51409241D01*
X78638759Y-51209363D01*
X78403727Y-51052320D01*
X78142574Y-50944147D01*
X77865335Y-50889000D01*
X77582665Y-50889000D01*
X77305426Y-50944147D01*
X77044273Y-51052320D01*
X76809241Y-51209363D01*
X76609363Y-51409241D01*
X76452320Y-51644273D01*
X76344147Y-51905426D01*
X76289000Y-52182665D01*
X71247000Y-52182665D01*
X71247000Y-49202818D01*
X72896787Y-49202818D01*
X73388946Y-49805149D01*
X74239933Y-50275063D01*
X75166243Y-50569929D01*
X76132281Y-50678414D01*
X77100921Y-50596351D01*
X78034938Y-50326893D01*
X78898440Y-49880394D01*
X79011054Y-49805149D01*
X79503213Y-49202818D01*
X76200000Y-45899605D01*
X72896787Y-49202818D01*
X71247000Y-49202818D01*
X71247000Y-45716186D01*
X71323649Y-46620921D01*
X71593107Y-47554938D01*
X72039606Y-48418440D01*
X72114851Y-48531054D01*
X72717182Y-49023213D01*
X76020395Y-45720000D01*
X72717182Y-42416787D01*
X72114851Y-42908946D01*
X71644937Y-43759933D01*
X71350071Y-44686243D01*
X71247000Y-45604070D01*
X71247000Y-40767000D01*
X76203814Y-40767000D01*
X75299079Y-40843649D01*
%TA.AperFunction,Conductor*%
D19*
G36*
X75299079Y-40843649D02*
G01*
X74365062Y-41113107D01*
X73501560Y-41559606D01*
X73388946Y-41634851D01*
X72896787Y-42237182D01*
X76200000Y-45540395D01*
X79503213Y-42237182D01*
X79011054Y-41634851D01*
X78160067Y-41164937D01*
X77233757Y-40870071D01*
X76315930Y-40767000D01*
X105667814Y-40767000D01*
X104763079Y-40843649D01*
X103829062Y-41113107D01*
X102965560Y-41559606D01*
X102852946Y-41634851D01*
X102360787Y-42237182D01*
X105664000Y-45540395D01*
X108967213Y-42237182D01*
X108475054Y-41634851D01*
X107624067Y-41164937D01*
X106697757Y-40870071D01*
X105779930Y-40767000D01*
X110617000Y-40767000D01*
X110617000Y-45723814D01*
X110540351Y-44819079D01*
X110270893Y-43885062D01*
X109824394Y-43021560D01*
X109749149Y-42908946D01*
X109146818Y-42416787D01*
X105843605Y-45720000D01*
X109146818Y-49023213D01*
X109749149Y-48531054D01*
X110219063Y-47680067D01*
X110513929Y-46753757D01*
X110617000Y-45835930D01*
X110617000Y-77219814D01*
X110540351Y-76315079D01*
X110270893Y-75381062D01*
X109824394Y-74517560D01*
X109749149Y-74404946D01*
X109146818Y-73912787D01*
X105843605Y-77216000D01*
X109146818Y-80519213D01*
X109749149Y-80027054D01*
X110219063Y-79176067D01*
X110513929Y-78249757D01*
X110617000Y-77331930D01*
X110617000Y-81661000D01*
X107812029Y-81661000D01*
X108362440Y-81376394D01*
X108475054Y-81301149D01*
X108967213Y-80698818D01*
X105664000Y-77395605D01*
X102360787Y-80698818D01*
X102852946Y-81301149D01*
X103504615Y-81661000D01*
X77840029Y-81661000D01*
X78390440Y-81376394D01*
X78503054Y-81301149D01*
X78995213Y-80698818D01*
X75692000Y-77395605D01*
X72388787Y-80698818D01*
X72880946Y-81301149D01*
X73532615Y-81661000D01*
X71247000Y-81661000D01*
X71247000Y-79364029D01*
X71531606Y-79914440D01*
X71606851Y-80027054D01*
X72209182Y-80519213D01*
X75512395Y-77216000D01*
X75871605Y-77216000D01*
X79174818Y-80519213D01*
X79777149Y-80027054D01*
X80247063Y-79176067D01*
X80541929Y-78249757D01*
X80650414Y-77283719D01*
X80638940Y-77148281D01*
X100705586Y-77148281D01*
X100787649Y-78116921D01*
X101057107Y-79050938D01*
X101503606Y-79914440D01*
X101578851Y-80027054D01*
X102181182Y-80519213D01*
X105484395Y-77216000D01*
X102181182Y-73912787D01*
X101578851Y-74404946D01*
X101108937Y-75255933D01*
X100814071Y-76182243D01*
X100705586Y-77148281D01*
X80638940Y-77148281D01*
X80568351Y-76315079D01*
X80298893Y-75381062D01*
X79852394Y-74517560D01*
X79777149Y-74404946D01*
X79174818Y-73912787D01*
X75871605Y-77216000D01*
X75512395Y-77216000D01*
X72209182Y-73912787D01*
X71606851Y-74404946D01*
X71247000Y-75056615D01*
X71247000Y-73733182D01*
X72388787Y-73733182D01*
X75692000Y-77036395D01*
X78995213Y-73733182D01*
X102360787Y-73733182D01*
X105664000Y-77036395D01*
X108967213Y-73733182D01*
X108475054Y-73130851D01*
X107624067Y-72660937D01*
X106697757Y-72366071D01*
X105731719Y-72257586D01*
X104763079Y-72339649D01*
X103829062Y-72609107D01*
X102965560Y-73055606D01*
X102852946Y-73130851D01*
X102360787Y-73733182D01*
X78995213Y-73733182D01*
X78503054Y-73130851D01*
X77652067Y-72660937D01*
X76725757Y-72366071D01*
X75759719Y-72257586D01*
X74791079Y-72339649D01*
X73857062Y-72609107D01*
X72993560Y-73055606D01*
X72880946Y-73130851D01*
X72388787Y-73733182D01*
X71247000Y-73733182D01*
X71247000Y-70401400D01*
X71884090Y-70401400D01*
X71914762Y-70502528D01*
X72022527Y-70735629D01*
X72173697Y-70943227D01*
X72362463Y-71117344D01*
X72581570Y-71251289D01*
X72822599Y-71339915D01*
X73025000Y-71217085D01*
X73025000Y-70199000D01*
X73279000Y-70199000D01*
X73279000Y-71217085D01*
X73481401Y-71339915D01*
X73722430Y-71251289D01*
X73941537Y-71117344D01*
X74130303Y-70943227D01*
X74281473Y-70735629D01*
X74389238Y-70502528D01*
X74419910Y-70401400D01*
X74296224Y-70199000D01*
X73279000Y-70199000D01*
X73025000Y-70199000D01*
X72007776Y-70199000D01*
X71884090Y-70401400D01*
X71247000Y-70401400D01*
X71247000Y-67397000D01*
X71838928Y-67397000D01*
X71838928Y-68747000D01*
X71851188Y-68871482D01*
X71887498Y-68991180D01*
X71946463Y-69101494D01*
X72025815Y-69198185D01*
X72119559Y-69275119D01*
X72022527Y-69408371D01*
X71914762Y-69641472D01*
X71884090Y-69742600D01*
X72007776Y-69945000D01*
X73025000Y-69945000D01*
X73025000Y-69925000D01*
X73279000Y-69925000D01*
X73279000Y-69945000D01*
X74296224Y-69945000D01*
X74419910Y-69742600D01*
X74389238Y-69641472D01*
X74281473Y-69408371D01*
X74184441Y-69275119D01*
X74278185Y-69198185D01*
X74357537Y-69101494D01*
X74416502Y-68991180D01*
X74452812Y-68871482D01*
X74465072Y-68747000D01*
X74465072Y-67397000D01*
X74452812Y-67272518D01*
X74416502Y-67152820D01*
X74357537Y-67042506D01*
X74278185Y-66945815D01*
X74181494Y-66866463D01*
X74071180Y-66807498D01*
X73951482Y-66771188D01*
X73827000Y-66758928D01*
X72477000Y-66758928D01*
X72352518Y-66771188D01*
X72232820Y-66807498D01*
X72122506Y-66866463D01*
X72025815Y-66945815D01*
X71946463Y-67042506D01*
X71887498Y-67152820D01*
X71851188Y-67272518D01*
X71838928Y-67397000D01*
X71247000Y-67397000D01*
X71247000Y-56221000D01*
X71838928Y-56221000D01*
X71838928Y-57571000D01*
X71851188Y-57695482D01*
X71887498Y-57815180D01*
X71946463Y-57925494D01*
X72025815Y-58022185D01*
X72112697Y-58093487D01*
X71991093Y-58275482D01*
X71892342Y-58513887D01*
X71842000Y-58766976D01*
X71842000Y-59025024D01*
X71892342Y-59278113D01*
X71991093Y-59516518D01*
X72134456Y-59731077D01*
X72299379Y-59896000D01*
X72134456Y-60060923D01*
X71991093Y-60275482D01*
X71892342Y-60513887D01*
X71842000Y-60766976D01*
X71842000Y-61025024D01*
X71892342Y-61278113D01*
X71991093Y-61516518D01*
X72134456Y-61731077D01*
X72299379Y-61896000D01*
X72134456Y-62060923D01*
X71991093Y-62275482D01*
X71892342Y-62513887D01*
X71842000Y-62766976D01*
X71842000Y-63025024D01*
X71892342Y-63278113D01*
X71991093Y-63516518D01*
X72134456Y-63731077D01*
X72316923Y-63913544D01*
X72531482Y-64056907D01*
X72769887Y-64155658D01*
X73022976Y-64206000D01*
X73281024Y-64206000D01*
X73534113Y-64155658D01*
X73772518Y-64056907D01*
X73987077Y-63913544D01*
X74169544Y-63731077D01*
X74312907Y-63516518D01*
X74411658Y-63278113D01*
X74462000Y-63025024D01*
X74462000Y-62766976D01*
X74411658Y-62513887D01*
X74312907Y-62275482D01*
X74169544Y-62060923D01*
X74004621Y-61896000D01*
X74169544Y-61731077D01*
X74312907Y-61516518D01*
X74411658Y-61278113D01*
X74462000Y-61025024D01*
X74462000Y-60766976D01*
X74411658Y-60513887D01*
X74312907Y-60275482D01*
X74169544Y-60060923D01*
X74004621Y-59896000D01*
X74169544Y-59731077D01*
X74312907Y-59516518D01*
X74411658Y-59278113D01*
X74462000Y-59025024D01*
X74462000Y-58766976D01*
X74411658Y-58513887D01*
X74312907Y-58275482D01*
X74191303Y-58093487D01*
X74278185Y-58022185D01*
X74357537Y-57925494D01*
X74416502Y-57815180D01*
X74452812Y-57695482D01*
X74465072Y-57571000D01*
X74465072Y-56221000D01*
X74452812Y-56096518D01*
X74416502Y-55976820D01*
X74357537Y-55866506D01*
X74278185Y-55769815D01*
X74181494Y-55690463D01*
X74071180Y-55631498D01*
X73951482Y-55595188D01*
X73827000Y-55582928D01*
X72477000Y-55582928D01*
X72352518Y-55595188D01*
X72232820Y-55631498D01*
X72122506Y-55690463D01*
X72025815Y-55769815D01*
X71946463Y-55866506D01*
X71887498Y-55976820D01*
X71851188Y-56096518D01*
X71838928Y-56221000D01*
X71247000Y-56221000D01*
X71247000Y-52182665D01*
X76289000Y-52182665D01*
X76289000Y-52465335D01*
X76344147Y-52742574D01*
X76452320Y-53003727D01*
X76609363Y-53238759D01*
X76809241Y-53438637D01*
X77041759Y-53594000D01*
X76809241Y-53749363D01*
X76609363Y-53949241D01*
X76452320Y-54184273D01*
X76344147Y-54445426D01*
X76289000Y-54722665D01*
X76289000Y-55005335D01*
X76344147Y-55282574D01*
X76452320Y-55543727D01*
X76609363Y-55778759D01*
X76809241Y-55978637D01*
X77041759Y-56134000D01*
X76809241Y-56289363D01*
X76609363Y-56489241D01*
X76452320Y-56724273D01*
X76344147Y-56985426D01*
X76289000Y-57262665D01*
X76289000Y-57545335D01*
X76344147Y-57822574D01*
X76452320Y-58083727D01*
X76609363Y-58318759D01*
X76809241Y-58518637D01*
X77041759Y-58674000D01*
X76809241Y-58829363D01*
X76609363Y-59029241D01*
X76452320Y-59264273D01*
X76344147Y-59525426D01*
X76289000Y-59802665D01*
X76289000Y-60085335D01*
X76344147Y-60362574D01*
X76452320Y-60623727D01*
X76609363Y-60858759D01*
X76809241Y-61058637D01*
X77041759Y-61214000D01*
X76809241Y-61369363D01*
X76609363Y-61569241D01*
X76452320Y-61804273D01*
X76344147Y-62065426D01*
X76289000Y-62342665D01*
X76289000Y-62625335D01*
X76344147Y-62902574D01*
X76452320Y-63163727D01*
X76609363Y-63398759D01*
X76809241Y-63598637D01*
X77041759Y-63754000D01*
X76809241Y-63909363D01*
X76609363Y-64109241D01*
X76452320Y-64344273D01*
X76344147Y-64605426D01*
X76289000Y-64882665D01*
X76289000Y-65165335D01*
X76344147Y-65442574D01*
X76452320Y-65703727D01*
X76609363Y-65938759D01*
X76809241Y-66138637D01*
X77041759Y-66294000D01*
X76809241Y-66449363D01*
X76609363Y-66649241D01*
X76452320Y-66884273D01*
X76344147Y-67145426D01*
X76289000Y-67422665D01*
X76289000Y-67705335D01*
X76344147Y-67982574D01*
X76452320Y-68243727D01*
X76609363Y-68478759D01*
X76809241Y-68678637D01*
X77041759Y-68834000D01*
X76809241Y-68989363D01*
X76609363Y-69189241D01*
X76452320Y-69424273D01*
X76344147Y-69685426D01*
X76289000Y-69962665D01*
X76289000Y-70245335D01*
X76344147Y-70522574D01*
X76452320Y-70783727D01*
X76609363Y-71018759D01*
X76809241Y-71218637D01*
X77044273Y-71375680D01*
X77305426Y-71483853D01*
X77582665Y-71539000D01*
X77865335Y-71539000D01*
X78142574Y-71483853D01*
X78403727Y-71375680D01*
X78638759Y-71218637D01*
X78838637Y-71018759D01*
X78995680Y-70783727D01*
X79103853Y-70522574D01*
X79159000Y-70245335D01*
X79159000Y-69962665D01*
X79103853Y-69685426D01*
X78995680Y-69424273D01*
X78915317Y-69304000D01*
X83905928Y-69304000D01*
X83905928Y-70904000D01*
X83918188Y-71028482D01*
X83954498Y-71148180D01*
X84013463Y-71258494D01*
X84092815Y-71355185D01*
X84189506Y-71434537D01*
X84299820Y-71493502D01*
X84419518Y-71529812D01*
X84544000Y-71542072D01*
X86144000Y-71542072D01*
X86268482Y-71529812D01*
X86388180Y-71493502D01*
X86498494Y-71434537D01*
X86595185Y-71355185D01*
X86674537Y-71258494D01*
X86733502Y-71148180D01*
X86769812Y-71028482D01*
X86782072Y-70904000D01*
X86782072Y-69304000D01*
X86769812Y-69179518D01*
X86733502Y-69059820D01*
X86674537Y-68949506D01*
X86595185Y-68852815D01*
X86498494Y-68773463D01*
X86388180Y-68714498D01*
X86268482Y-68678188D01*
X86260039Y-68677357D01*
X86458637Y-68478759D01*
X86615680Y-68243727D01*
X86723853Y-67982574D01*
X86779000Y-67705335D01*
X86779000Y-67422665D01*
X86723853Y-67145426D01*
X86615680Y-66884273D01*
X86458637Y-66649241D01*
X86258759Y-66449363D01*
X86026241Y-66294000D01*
X86258759Y-66138637D01*
X86458637Y-65938759D01*
X86615680Y-65703727D01*
X86723853Y-65442574D01*
X86779000Y-65165335D01*
X86779000Y-64882665D01*
X86723853Y-64605426D01*
X86615680Y-64344273D01*
X86458637Y-64109241D01*
X86258759Y-63909363D01*
X86026241Y-63754000D01*
X86258759Y-63598637D01*
X86458637Y-63398759D01*
X86615680Y-63163727D01*
X86723853Y-62902574D01*
X86779000Y-62625335D01*
X86779000Y-62342665D01*
X86723853Y-62065426D01*
X86615680Y-61804273D01*
X86458637Y-61569241D01*
X86258759Y-61369363D01*
X86026241Y-61214000D01*
X86258759Y-61058637D01*
X86458637Y-60858759D01*
X86482925Y-60822408D01*
X91059000Y-60822408D01*
X91059000Y-61097592D01*
X91112686Y-61367490D01*
X91217995Y-61621727D01*
X91370880Y-61850535D01*
X91565465Y-62045120D01*
X91794273Y-62198005D01*
X91810017Y-62204526D01*
X91725995Y-62330273D01*
X91620686Y-62584510D01*
X91567000Y-62854408D01*
X91567000Y-63129592D01*
X91620686Y-63399490D01*
X91725995Y-63653727D01*
X91878880Y-63882535D01*
X92073465Y-64077120D01*
X92302273Y-64230005D01*
X92556510Y-64335314D01*
X92826408Y-64389000D01*
X93091000Y-64389000D01*
X93091000Y-64653592D01*
X93144686Y-64923490D01*
X93249995Y-65177727D01*
X93402880Y-65406535D01*
X93597465Y-65601120D01*
X93826273Y-65754005D01*
X94080510Y-65859314D01*
X94350408Y-65913000D01*
X94625592Y-65913000D01*
X94895490Y-65859314D01*
X95140547Y-65757807D01*
X95176686Y-65939490D01*
X95281995Y-66193727D01*
X95434880Y-66422535D01*
X95629465Y-66617120D01*
X95858273Y-66770005D01*
X96112510Y-66875314D01*
X96382408Y-66929000D01*
X96657592Y-66929000D01*
X96927490Y-66875314D01*
X97181727Y-66770005D01*
X97410535Y-66617120D01*
X97536000Y-66491655D01*
X97661465Y-66617120D01*
X97890273Y-66770005D01*
X98144510Y-66875314D01*
X98414408Y-66929000D01*
X98689592Y-66929000D01*
X98959490Y-66875314D01*
X99213727Y-66770005D01*
X99442535Y-66617120D01*
X99637120Y-66422535D01*
X99790005Y-66193727D01*
X99895314Y-65939490D01*
X99931453Y-65757807D01*
X100176510Y-65859314D01*
X100446408Y-65913000D01*
X100721592Y-65913000D01*
X100991490Y-65859314D01*
X101245727Y-65754005D01*
X101474535Y-65601120D01*
X101669120Y-65406535D01*
X101822005Y-65177727D01*
X101927314Y-64923490D01*
X101981000Y-64653592D01*
X101981000Y-64389000D01*
X102245592Y-64389000D01*
X102515490Y-64335314D01*
X102769727Y-64230005D01*
X102998535Y-64077120D01*
X103193120Y-63882535D01*
X103346005Y-63653727D01*
X103451314Y-63399490D01*
X103505000Y-63129592D01*
X103505000Y-62854408D01*
X103451314Y-62584510D01*
X103346005Y-62330273D01*
X103193120Y-62101465D01*
X102998535Y-61906880D01*
X102769727Y-61753995D01*
X102515490Y-61648686D01*
X102245592Y-61595000D01*
X101970408Y-61595000D01*
X101700510Y-61648686D01*
X101446273Y-61753995D01*
X101217465Y-61906880D01*
X101022880Y-62101465D01*
X100869995Y-62330273D01*
X100764686Y-62584510D01*
X100711000Y-62854408D01*
X100711000Y-63119000D01*
X100446408Y-63119000D01*
X100176510Y-63172686D01*
X99922273Y-63277995D01*
X99693465Y-63430880D01*
X99498880Y-63625465D01*
X99345995Y-63854273D01*
X99240686Y-64108510D01*
X99204547Y-64290193D01*
X98959490Y-64188686D01*
X98689592Y-64135000D01*
X98414408Y-64135000D01*
X98144510Y-64188686D01*
X97890273Y-64293995D01*
X97661465Y-64446880D01*
X97536000Y-64572345D01*
X97410535Y-64446880D01*
X97181727Y-64293995D01*
X96927490Y-64188686D01*
X96657592Y-64135000D01*
X96382408Y-64135000D01*
X96112510Y-64188686D01*
X95867453Y-64290193D01*
X95831314Y-64108510D01*
X95726005Y-63854273D01*
X95573120Y-63625465D01*
X95378535Y-63430880D01*
X95149727Y-63277995D01*
X94895490Y-63172686D01*
X94625592Y-63119000D01*
X94361000Y-63119000D01*
X94361000Y-62854408D01*
X94307314Y-62584510D01*
X94202005Y-62330273D01*
X94049120Y-62101465D01*
X93854535Y-61906880D01*
X93625727Y-61753995D01*
X93609983Y-61747474D01*
X93694005Y-61621727D01*
X93799314Y-61367490D01*
X93853000Y-61097592D01*
X93853000Y-60822408D01*
X93799314Y-60552510D01*
X93694005Y-60298273D01*
X93609983Y-60172526D01*
X93625727Y-60166005D01*
X93854535Y-60013120D01*
X94049120Y-59818535D01*
X94202005Y-59589727D01*
X94307314Y-59335490D01*
X94361000Y-59065592D01*
X94361000Y-58801000D01*
X94625592Y-58801000D01*
X94895490Y-58747314D01*
X95149727Y-58642005D01*
X95378535Y-58489120D01*
X95573120Y-58294535D01*
X95726005Y-58065727D01*
X95831314Y-57811490D01*
X95867453Y-57629807D01*
X96112510Y-57731314D01*
X96382408Y-57785000D01*
X96657592Y-57785000D01*
X96927490Y-57731314D01*
X97181727Y-57626005D01*
X97410535Y-57473120D01*
X97536000Y-57347655D01*
X97661465Y-57473120D01*
X97890273Y-57626005D01*
X98144510Y-57731314D01*
X98414408Y-57785000D01*
X98689592Y-57785000D01*
X98959490Y-57731314D01*
X99204547Y-57629807D01*
X99240686Y-57811490D01*
X99345995Y-58065727D01*
X99498880Y-58294535D01*
X99693465Y-58489120D01*
X99922273Y-58642005D01*
X100176510Y-58747314D01*
X100446408Y-58801000D01*
X100711000Y-58801000D01*
X100711000Y-59065592D01*
X100764686Y-59335490D01*
X100869995Y-59589727D01*
X101022880Y-59818535D01*
X101217465Y-60013120D01*
X101446273Y-60166005D01*
X101700510Y-60271314D01*
X101970408Y-60325000D01*
X102245592Y-60325000D01*
X102515490Y-60271314D01*
X102769727Y-60166005D01*
X102998535Y-60013120D01*
X103193120Y-59818535D01*
X103346005Y-59589727D01*
X103451314Y-59335490D01*
X103505000Y-59065592D01*
X103505000Y-58790408D01*
X103451314Y-58520510D01*
X103369057Y-58321924D01*
X103813001Y-58765869D01*
X103813000Y-59707219D01*
X103808960Y-59748238D01*
X103813000Y-59789256D01*
X103825082Y-59911926D01*
X103872828Y-60069324D01*
X103950364Y-60214383D01*
X104054709Y-60341529D01*
X104086579Y-60367684D01*
X104321001Y-60602106D01*
X104321000Y-62729868D01*
X104274388Y-62776480D01*
X104150176Y-62962376D01*
X104064617Y-63168933D01*
X104021000Y-63388212D01*
X104021000Y-63611788D01*
X104064617Y-63831067D01*
X104150176Y-64037624D01*
X104274388Y-64223520D01*
X104432480Y-64381612D01*
X104618376Y-64505824D01*
X104824933Y-64591383D01*
X105044212Y-64635000D01*
X105267788Y-64635000D01*
X105487067Y-64591383D01*
X105693624Y-64505824D01*
X105879520Y-64381612D01*
X106037612Y-64223520D01*
X106161824Y-64037624D01*
X106247383Y-63831067D01*
X106291000Y-63611788D01*
X106291000Y-63388212D01*
X106247383Y-63168933D01*
X106161824Y-62962376D01*
X106037612Y-62776480D01*
X105991000Y-62729868D01*
X105991000Y-62273400D01*
X106936090Y-62273400D01*
X106966762Y-62374528D01*
X107074527Y-62607629D01*
X107225697Y-62815227D01*
X107414463Y-62989344D01*
X107633570Y-63123289D01*
X107874599Y-63211915D01*
X108077000Y-63089085D01*
X108077000Y-62071000D01*
X108331000Y-62071000D01*
X108331000Y-63089085D01*
X108533401Y-63211915D01*
X108774430Y-63123289D01*
X108993537Y-62989344D01*
X109182303Y-62815227D01*
X109333473Y-62607629D01*
X109441238Y-62374528D01*
X109471910Y-62273400D01*
X109348224Y-62071000D01*
X108331000Y-62071000D01*
X108077000Y-62071000D01*
X107059776Y-62071000D01*
X106936090Y-62273400D01*
X105991000Y-62273400D01*
X105991000Y-60297245D01*
X105995039Y-60256237D01*
X105991000Y-60215229D01*
X105991000Y-60215219D01*
X105978918Y-60092549D01*
X105931172Y-59935151D01*
X105853636Y-59790092D01*
X105749291Y-59662947D01*
X105717421Y-59636792D01*
X105483000Y-59402371D01*
X105483000Y-59269000D01*
X106890928Y-59269000D01*
X106890928Y-60619000D01*
X106903188Y-60743482D01*
X106939498Y-60863180D01*
X106998463Y-60973494D01*
X107077815Y-61070185D01*
X107171559Y-61147119D01*
X107074527Y-61280371D01*
X106966762Y-61513472D01*
X106936090Y-61614600D01*
X107059776Y-61817000D01*
X108077000Y-61817000D01*
X108077000Y-61797000D01*
X108331000Y-61797000D01*
X108331000Y-61817000D01*
X109348224Y-61817000D01*
X109471910Y-61614600D01*
X109441238Y-61513472D01*
X109333473Y-61280371D01*
X109236441Y-61147119D01*
X109330185Y-61070185D01*
X109409537Y-60973494D01*
X109468502Y-60863180D01*
X109504812Y-60743482D01*
X109517072Y-60619000D01*
X109517072Y-59269000D01*
X109504812Y-59144518D01*
X109468502Y-59024820D01*
X109409537Y-58914506D01*
X109330185Y-58817815D01*
X109233494Y-58738463D01*
X109123180Y-58679498D01*
X109003482Y-58643188D01*
X108879000Y-58630928D01*
X107529000Y-58630928D01*
X107404518Y-58643188D01*
X107284820Y-58679498D01*
X107174506Y-58738463D01*
X107077815Y-58817815D01*
X106998463Y-58914506D01*
X106939498Y-59024820D01*
X106903188Y-59144518D01*
X106890928Y-59269000D01*
X105483000Y-59269000D01*
X105483000Y-58461007D01*
X105487039Y-58419999D01*
X105483000Y-58378991D01*
X105483000Y-58378981D01*
X105470918Y-58256311D01*
X105423172Y-58098913D01*
X105345636Y-57953854D01*
X105241291Y-57826709D01*
X105209426Y-57800559D01*
X103743446Y-56334579D01*
X103717291Y-56302709D01*
X103590146Y-56198364D01*
X103445087Y-56120828D01*
X103287689Y-56073082D01*
X103165019Y-56061000D01*
X103165018Y-56061000D01*
X103124000Y-56056960D01*
X103082982Y-56061000D01*
X101133007Y-56061000D01*
X101091999Y-56056961D01*
X101050991Y-56061000D01*
X101050981Y-56061000D01*
X101003531Y-56065673D01*
X100991490Y-56060686D01*
X100721592Y-56007000D01*
X100446408Y-56007000D01*
X100176510Y-56060686D01*
X99931453Y-56162193D01*
X99895314Y-55980510D01*
X99790005Y-55726273D01*
X99637120Y-55497465D01*
X99442535Y-55302880D01*
X99213727Y-55149995D01*
X98959490Y-55044686D01*
X98689592Y-54991000D01*
X98414408Y-54991000D01*
X98144510Y-55044686D01*
X97890273Y-55149995D01*
X97661465Y-55302880D01*
X97536000Y-55428345D01*
X97410535Y-55302880D01*
X97181727Y-55149995D01*
X96927490Y-55044686D01*
X96657592Y-54991000D01*
X96382408Y-54991000D01*
X96112510Y-55044686D01*
X95858273Y-55149995D01*
X95629465Y-55302880D01*
X95434880Y-55497465D01*
X95281995Y-55726273D01*
X95176686Y-55980510D01*
X95140547Y-56162193D01*
X94895490Y-56060686D01*
X94625592Y-56007000D01*
X94350408Y-56007000D01*
X94080510Y-56060686D01*
X93826273Y-56165995D01*
X93597465Y-56318880D01*
X93402880Y-56513465D01*
X93249995Y-56742273D01*
X93144686Y-56996510D01*
X93091000Y-57266408D01*
X93091000Y-57531000D01*
X92826408Y-57531000D01*
X92556510Y-57584686D01*
X92302273Y-57689995D01*
X92073465Y-57842880D01*
X91878880Y-58037465D01*
X91725995Y-58266273D01*
X91620686Y-58520510D01*
X91567000Y-58790408D01*
X91567000Y-59065592D01*
X91620686Y-59335490D01*
X91725995Y-59589727D01*
X91810017Y-59715474D01*
X91794273Y-59721995D01*
X91565465Y-59874880D01*
X91370880Y-60069465D01*
X91217995Y-60298273D01*
X91112686Y-60552510D01*
X91059000Y-60822408D01*
X86482925Y-60822408D01*
X86615680Y-60623727D01*
X86723853Y-60362574D01*
X86779000Y-60085335D01*
X86779000Y-59802665D01*
X86723853Y-59525426D01*
X86615680Y-59264273D01*
X86458637Y-59029241D01*
X86258759Y-58829363D01*
X86026241Y-58674000D01*
X86258759Y-58518637D01*
X86458637Y-58318759D01*
X86615680Y-58083727D01*
X86723853Y-57822574D01*
X86779000Y-57545335D01*
X86779000Y-57262665D01*
X86723853Y-56985426D01*
X86615680Y-56724273D01*
X86458637Y-56489241D01*
X86258759Y-56289363D01*
X86026241Y-56134000D01*
X86258759Y-55978637D01*
X86458637Y-55778759D01*
X86615680Y-55543727D01*
X86723853Y-55282574D01*
X86779000Y-55005335D01*
X86779000Y-54722665D01*
X86723853Y-54445426D01*
X86615680Y-54184273D01*
X86458637Y-53949241D01*
X86258759Y-53749363D01*
X86023727Y-53592320D01*
X86013135Y-53587933D01*
X86199131Y-53476385D01*
X86407519Y-53287414D01*
X86575037Y-53061420D01*
X86695246Y-52807087D01*
X86735904Y-52673039D01*
X86613915Y-52451000D01*
X85471000Y-52451000D01*
X85471000Y-52471000D01*
X85217000Y-52471000D01*
X85217000Y-52451000D01*
X84074085Y-52451000D01*
X83952096Y-52673039D01*
X83992754Y-52807087D01*
X84112963Y-53061420D01*
X84280481Y-53287414D01*
X84488869Y-53476385D01*
X84674865Y-53587933D01*
X84664273Y-53592320D01*
X84429241Y-53749363D01*
X84229363Y-53949241D01*
X84072320Y-54184273D01*
X83964147Y-54445426D01*
X83909000Y-54722665D01*
X83909000Y-55005335D01*
X83964147Y-55282574D01*
X84072320Y-55543727D01*
X84229363Y-55778759D01*
X84429241Y-55978637D01*
X84661759Y-56134000D01*
X84429241Y-56289363D01*
X84229363Y-56489241D01*
X84072320Y-56724273D01*
X83964147Y-56985426D01*
X83909000Y-57262665D01*
X83909000Y-57545335D01*
X83964147Y-57822574D01*
X84072320Y-58083727D01*
X84229363Y-58318759D01*
X84429241Y-58518637D01*
X84661759Y-58674000D01*
X84429241Y-58829363D01*
X84229363Y-59029241D01*
X84072320Y-59264273D01*
X83964147Y-59525426D01*
X83909000Y-59802665D01*
X83909000Y-60085335D01*
X83964147Y-60362574D01*
X84072320Y-60623727D01*
X84229363Y-60858759D01*
X84429241Y-61058637D01*
X84661759Y-61214000D01*
X84429241Y-61369363D01*
X84229363Y-61569241D01*
X84072320Y-61804273D01*
X83964147Y-62065426D01*
X83909000Y-62342665D01*
X83909000Y-62625335D01*
X83964147Y-62902574D01*
X84072320Y-63163727D01*
X84229363Y-63398759D01*
X84429241Y-63598637D01*
X84661759Y-63754000D01*
X84429241Y-63909363D01*
X84229363Y-64109241D01*
X84072320Y-64344273D01*
X83964147Y-64605426D01*
X83909000Y-64882665D01*
X83909000Y-65165335D01*
X83964147Y-65442574D01*
X84072320Y-65703727D01*
X84229363Y-65938759D01*
X84429241Y-66138637D01*
X84661759Y-66294000D01*
X84429241Y-66449363D01*
X84229363Y-66649241D01*
X84072320Y-66884273D01*
X83964147Y-67145426D01*
X83909000Y-67422665D01*
X83909000Y-67705335D01*
X83964147Y-67982574D01*
X84072320Y-68243727D01*
X84229363Y-68478759D01*
X84427961Y-68677357D01*
X84419518Y-68678188D01*
X84299820Y-68714498D01*
X84189506Y-68773463D01*
X84092815Y-68852815D01*
X84013463Y-68949506D01*
X83954498Y-69059820D01*
X83918188Y-69179518D01*
X83905928Y-69304000D01*
X78915317Y-69304000D01*
X78838637Y-69189241D01*
X78638759Y-68989363D01*
X78406241Y-68834000D01*
X78638759Y-68678637D01*
X78838637Y-68478759D01*
X78995680Y-68243727D01*
X79103853Y-67982574D01*
X79159000Y-67705335D01*
X79159000Y-67422665D01*
X79103853Y-67145426D01*
X78995680Y-66884273D01*
X78838637Y-66649241D01*
X78638759Y-66449363D01*
X78406241Y-66294000D01*
X78638759Y-66138637D01*
X78838637Y-65938759D01*
X78995680Y-65703727D01*
X79103853Y-65442574D01*
X79159000Y-65165335D01*
X79159000Y-64882665D01*
X79103853Y-64605426D01*
X78995680Y-64344273D01*
X78838637Y-64109241D01*
X78638759Y-63909363D01*
X78406241Y-63754000D01*
X78638759Y-63598637D01*
X78838637Y-63398759D01*
X78995680Y-63163727D01*
X79103853Y-62902574D01*
X79159000Y-62625335D01*
X79159000Y-62342665D01*
X79103853Y-62065426D01*
X78995680Y-61804273D01*
X78838637Y-61569241D01*
X78638759Y-61369363D01*
X78406241Y-61214000D01*
X78638759Y-61058637D01*
X78838637Y-60858759D01*
X78995680Y-60623727D01*
X79103853Y-60362574D01*
X79159000Y-60085335D01*
X79159000Y-59802665D01*
X79103853Y-59525426D01*
X78995680Y-59264273D01*
X78838637Y-59029241D01*
X78638759Y-58829363D01*
X78406241Y-58674000D01*
X78638759Y-58518637D01*
X78838637Y-58318759D01*
X78995680Y-58083727D01*
X79103853Y-57822574D01*
X79159000Y-57545335D01*
X79159000Y-57262665D01*
X79140285Y-57168582D01*
X82857427Y-53451441D01*
X82889291Y-53425291D01*
X82993636Y-53298146D01*
X83071172Y-53153087D01*
X83118918Y-52995689D01*
X83131000Y-52873019D01*
X83131000Y-52873009D01*
X83135039Y-52832001D01*
X83131000Y-52790993D01*
X83131000Y-51974961D01*
X83952096Y-51974961D01*
X84074085Y-52197000D01*
X85217000Y-52197000D01*
X85217000Y-51053376D01*
X85471000Y-51053376D01*
X85471000Y-52197000D01*
X86613915Y-52197000D01*
X86735904Y-51974961D01*
X86695246Y-51840913D01*
X86575037Y-51586580D01*
X86407519Y-51360586D01*
X86199131Y-51171615D01*
X85957881Y-51026930D01*
X85693040Y-50932091D01*
X85471000Y-51053376D01*
X85217000Y-51053376D01*
X84994960Y-50932091D01*
X84730119Y-51026930D01*
X84488869Y-51171615D01*
X84280481Y-51360586D01*
X84112963Y-51586580D01*
X83992754Y-51840913D01*
X83952096Y-51974961D01*
X83131000Y-51974961D01*
X83131000Y-50637867D01*
X84381426Y-49387441D01*
X84413291Y-49361291D01*
X84517636Y-49234146D01*
X84534381Y-49202818D01*
X102360787Y-49202818D01*
X102852946Y-49805149D01*
X103703933Y-50275063D01*
X104630243Y-50569929D01*
X105596281Y-50678414D01*
X106564921Y-50596351D01*
X107498938Y-50326893D01*
X108362440Y-49880394D01*
X108475054Y-49805149D01*
X108967213Y-49202818D01*
X105664000Y-45899605D01*
X102360787Y-49202818D01*
X84534381Y-49202818D01*
X84595172Y-49089087D01*
X84642918Y-48931689D01*
X84655000Y-48809019D01*
X84655000Y-48809009D01*
X84659039Y-48768001D01*
X84655000Y-48726993D01*
X84655000Y-47506132D01*
X84701612Y-47459520D01*
X84825824Y-47273624D01*
X84911383Y-47067067D01*
X84955000Y-46847788D01*
X84955000Y-46624212D01*
X84911383Y-46404933D01*
X84825824Y-46198376D01*
X84701612Y-46012480D01*
X84543520Y-45854388D01*
X84357624Y-45730176D01*
X84169570Y-45652281D01*
X100705586Y-45652281D01*
X100787649Y-46620921D01*
X101057107Y-47554938D01*
X101503606Y-48418440D01*
X101578851Y-48531054D01*
X102181182Y-49023213D01*
X105484395Y-45720000D01*
X102181182Y-42416787D01*
X101578851Y-42908946D01*
X101108937Y-43759933D01*
X100814071Y-44686243D01*
X100705586Y-45652281D01*
X84169570Y-45652281D01*
X84151067Y-45644617D01*
X83931788Y-45601000D01*
X83708212Y-45601000D01*
X83488933Y-45644617D01*
X83282376Y-45730176D01*
X83096480Y-45854388D01*
X82938388Y-46012480D01*
X82814176Y-46198376D01*
X82728617Y-46404933D01*
X82685000Y-46624212D01*
X82685000Y-46847788D01*
X82728617Y-47067067D01*
X82814176Y-47273624D01*
X82938388Y-47459520D01*
X82985000Y-47506132D01*
X82985001Y-48422131D01*
X82115000Y-49292133D01*
X82115000Y-48522132D01*
X82161612Y-48475520D01*
X82285824Y-48289624D01*
X82371383Y-48083067D01*
X82415000Y-47863788D01*
X82415000Y-47640212D01*
X82371383Y-47420933D01*
X82285824Y-47214376D01*
X82161612Y-47028480D01*
X82003520Y-46870388D01*
X81817624Y-46746176D01*
X81611067Y-46660617D01*
X81391788Y-46617000D01*
X81168212Y-46617000D01*
X81062935Y-46637941D01*
X81158414Y-45787719D01*
X81076351Y-44819079D01*
X80806893Y-43885062D01*
X80360394Y-43021560D01*
X80285149Y-42908946D01*
X79682818Y-42416787D01*
X76379605Y-45720000D01*
X79682818Y-49023213D01*
X80285149Y-48531054D01*
X80353178Y-48407858D01*
X80398388Y-48475520D01*
X80445000Y-48522132D01*
X80445001Y-50962131D01*
X79159000Y-52248132D01*
X79159000Y-52182665D01*
X79103853Y-51905426D01*
X78995680Y-51644273D01*
X78838637Y-51409241D01*
X78638759Y-51209363D01*
X78403727Y-51052320D01*
X78142574Y-50944147D01*
X77865335Y-50889000D01*
X77582665Y-50889000D01*
X77305426Y-50944147D01*
X77044273Y-51052320D01*
X76809241Y-51209363D01*
X76609363Y-51409241D01*
X76452320Y-51644273D01*
X76344147Y-51905426D01*
X76289000Y-52182665D01*
X71247000Y-52182665D01*
X71247000Y-49202818D01*
X72896787Y-49202818D01*
X73388946Y-49805149D01*
X74239933Y-50275063D01*
X75166243Y-50569929D01*
X76132281Y-50678414D01*
X77100921Y-50596351D01*
X78034938Y-50326893D01*
X78898440Y-49880394D01*
X79011054Y-49805149D01*
X79503213Y-49202818D01*
X76200000Y-45899605D01*
X72896787Y-49202818D01*
X71247000Y-49202818D01*
X71247000Y-45716186D01*
X71323649Y-46620921D01*
X71593107Y-47554938D01*
X72039606Y-48418440D01*
X72114851Y-48531054D01*
X72717182Y-49023213D01*
X76020395Y-45720000D01*
X72717182Y-42416787D01*
X72114851Y-42908946D01*
X71644937Y-43759933D01*
X71350071Y-44686243D01*
X71247000Y-45604070D01*
X71247000Y-40767000D01*
X76203814Y-40767000D01*
X75299079Y-40843649D01*
G37*
%TD.AperFunction*%
%TD*%
M02*
