M48
; DRILL file {KiCad 5.1.9} date Tue Mar  9 01:37:07 2021
; FORMAT={-:-/ absolute / inch / decimal}
; #@! TF.CreationDate,2021-03-09T01:37:07+01:00
; #@! TF.GenerationSoftware,Kicad,Pcbnew,5.1.9
; #@! TF.FileFunction,Plated,1,2,PTH
FMAT,2
INCH
T1C0.0236
T2C0.0300
T3C0.0315
T4C0.1693
%
G90
G05
T1
X3.2Y-1.88
X3.3Y-1.84
X4.14Y-2.5
T2
X3.64Y-2.4
X3.66Y-2.32
X3.66Y-2.48
X3.72Y-2.26
X3.72Y-2.54
X3.8Y-2.22
X3.8Y-2.58
X3.88Y-2.22
X3.88Y-2.58
X3.96Y-2.26
X3.96Y-2.54
X4.02Y-2.32
X4.02Y-2.48
T3
X2.88Y-2.24
X2.88Y-2.3187
X2.88Y-2.3975
X2.88Y-2.4762
X2.88Y-2.68
X2.88Y-2.7587
X3.06Y-2.06
X3.06Y-2.16
X3.06Y-2.26
X3.06Y-2.36
X3.06Y-2.46
X3.06Y-2.56
X3.06Y-2.66
X3.06Y-2.76
X3.36Y-2.06
X3.36Y-2.16
X3.36Y-2.26
X3.36Y-2.36
X3.36Y-2.46
X3.36Y-2.56
X3.36Y-2.66
X3.36Y-2.76
X4.26Y-2.36
X4.26Y-2.4387
T4
X2.98Y-3.04
X3.0Y-1.8
X4.16Y-1.8
X4.16Y-3.04
T0
M30
