%TF.GenerationSoftware,KiCad,Pcbnew,5.1.9*%
%TF.CreationDate,2021-03-09T01:50:32+01:00*%
%TF.ProjectId,nixie_power,6e697869-655f-4706-9f77-65722e6b6963,rev?*%
%TF.SameCoordinates,Original*%
%TF.FileFunction,Copper,L1,Top*%
%TF.FilePolarity,Positive*%
%FSLAX46Y46*%
G04 Gerber Fmt 4.6, Leading zero omitted, Abs format (unit mm)*
G04 Created by KiCad (PCBNEW 5.1.9) date 2021-03-09 01:50:32*
%MOMM*%
%LPD*%
G01*
G04 APERTURE LIST*
%TA.AperFunction,ComponentPad*%
%ADD10O,1.600000X1.600000*%
%TD*%
%TA.AperFunction,ComponentPad*%
%ADD11C,1.600000*%
%TD*%
%TA.AperFunction,ComponentPad*%
%ADD12R,1.600000X1.600000*%
%TD*%
%TA.AperFunction,ComponentPad*%
%ADD13C,2.340000*%
%TD*%
%TA.AperFunction,ComponentPad*%
%ADD14R,1.050000X1.500000*%
%TD*%
%TA.AperFunction,ComponentPad*%
%ADD15O,1.050000X1.500000*%
%TD*%
%TA.AperFunction,ComponentPad*%
%ADD16O,2.000000X1.905000*%
%TD*%
%TA.AperFunction,ComponentPad*%
%ADD17R,2.000000X1.905000*%
%TD*%
%TA.AperFunction,ComponentPad*%
%ADD18C,3.600000*%
%TD*%
%TA.AperFunction,ComponentPad*%
%ADD19C,3.000000*%
%TD*%
%TA.AperFunction,ComponentPad*%
%ADD20R,3.000000X3.000000*%
%TD*%
%TA.AperFunction,ComponentPad*%
%ADD21O,2.400000X2.400000*%
%TD*%
%TA.AperFunction,ComponentPad*%
%ADD22R,2.400000X2.400000*%
%TD*%
%TA.AperFunction,ComponentPad*%
%ADD23C,2.400000*%
%TD*%
%TA.AperFunction,ComponentPad*%
%ADD24C,2.000000*%
%TD*%
%TA.AperFunction,ComponentPad*%
%ADD25R,2.000000X2.000000*%
%TD*%
%TA.AperFunction,Conductor*%
%ADD26C,0.500000*%
%TD*%
G04 APERTURE END LIST*
D10*
%TO.P,R1,2*%
%TO.N,Net-(R1-Pad2)*%
X148844000Y-84074000D03*
D11*
%TO.P,R1,1*%
%TO.N,Net-(C2-Pad1)*%
X138684000Y-84074000D03*
%TD*%
D10*
%TO.P,U1,8*%
%TO.N,Net-(C2-Pad1)*%
X131318000Y-93726000D03*
%TO.P,U1,4*%
X123698000Y-101346000D03*
%TO.P,U1,7*%
%TO.N,Net-(R1-Pad2)*%
X131318000Y-96266000D03*
%TO.P,U1,3*%
%TO.N,Net-(Q1-Pad1)*%
X123698000Y-98806000D03*
%TO.P,U1,6*%
%TO.N,Net-(C1-Pad1)*%
X131318000Y-98806000D03*
%TO.P,U1,2*%
X123698000Y-96266000D03*
%TO.P,U1,5*%
%TO.N,Net-(Q2-Pad1)*%
X131318000Y-101346000D03*
D12*
%TO.P,U1,1*%
%TO.N,GND*%
X123698000Y-93726000D03*
%TD*%
D13*
%TO.P,RV1,1*%
%TO.N,Net-(R4-Pad2)*%
X148844000Y-99822000D03*
%TO.P,RV1,2*%
%TO.N,Net-(Q2-Pad2)*%
X158844000Y-97322000D03*
%TO.P,RV1,3*%
%TO.N,Net-(R5-Pad1)*%
X148844000Y-94822000D03*
%TD*%
D10*
%TO.P,R5,2*%
%TO.N,GND*%
X136144000Y-94234000D03*
D11*
%TO.P,R5,1*%
%TO.N,Net-(R5-Pad1)*%
X146304000Y-94234000D03*
%TD*%
D10*
%TO.P,R4,2*%
%TO.N,Net-(R4-Pad2)*%
X162052000Y-102616000D03*
D11*
%TO.P,R4,1*%
%TO.N,Net-(C4-Pad1)*%
X162052000Y-92456000D03*
%TD*%
%TO.P,R3,1*%
%TO.N,Net-(C3-Pad2)*%
X138938000Y-79756000D03*
D10*
%TO.P,R3,2*%
%TO.N,GND*%
X149098000Y-79756000D03*
%TD*%
%TO.P,R2,2*%
%TO.N,Net-(C1-Pad1)*%
X148590000Y-89154000D03*
D11*
%TO.P,R2,1*%
%TO.N,Net-(R1-Pad2)*%
X138430000Y-89154000D03*
%TD*%
D14*
%TO.P,Q2,1*%
%TO.N,Net-(Q2-Pad1)*%
X137414000Y-101346000D03*
D15*
%TO.P,Q2,3*%
%TO.N,GND*%
X139954000Y-101346000D03*
%TO.P,Q2,2*%
%TO.N,Net-(Q2-Pad2)*%
X138684000Y-101346000D03*
%TD*%
D16*
%TO.P,Q1,3*%
%TO.N,GND*%
X117094000Y-95250000D03*
%TO.P,Q1,2*%
%TO.N,Net-(C3-Pad1)*%
X117094000Y-97790000D03*
D17*
%TO.P,Q1,1*%
%TO.N,Net-(Q1-Pad1)*%
X117094000Y-100330000D03*
%TD*%
D18*
%TO.P,L1,2*%
%TO.N,Net-(C3-Pad1)*%
X110236000Y-84066000D03*
%TO.P,L1,1*%
%TO.N,Net-(C2-Pad1)*%
X110236000Y-78486000D03*
%TD*%
D19*
%TO.P,J2,2*%
%TO.N,GND*%
X168148000Y-93472000D03*
D20*
%TO.P,J2,1*%
%TO.N,Net-(C4-Pad1)*%
X168148000Y-88392000D03*
%TD*%
D19*
%TO.P,J1,2*%
%TO.N,GND*%
X97536000Y-91948000D03*
D20*
%TO.P,J1,1*%
%TO.N,Net-(C2-Pad1)*%
X97536000Y-86868000D03*
%TD*%
D21*
%TO.P,D1,2*%
%TO.N,Net-(C3-Pad1)*%
X120650000Y-78994000D03*
D22*
%TO.P,D1,1*%
%TO.N,Net-(C4-Pad1)*%
X133350000Y-78994000D03*
%TD*%
D23*
%TO.P,C4,2*%
%TO.N,GND*%
X157480000Y-88272000D03*
D22*
%TO.P,C4,1*%
%TO.N,Net-(C4-Pad1)*%
X157480000Y-80772000D03*
%TD*%
D24*
%TO.P,C3,2*%
%TO.N,Net-(C3-Pad2)*%
X131666000Y-86360000D03*
%TO.P,C3,1*%
%TO.N,Net-(C3-Pad1)*%
X121666000Y-86360000D03*
%TD*%
%TO.P,C2,2*%
%TO.N,GND*%
X107188000Y-99996000D03*
D25*
%TO.P,C2,1*%
%TO.N,Net-(C2-Pad1)*%
X107188000Y-94996000D03*
%TD*%
D24*
%TO.P,C1,2*%
%TO.N,GND*%
X112348000Y-89916000D03*
%TO.P,C1,1*%
%TO.N,Net-(C1-Pad1)*%
X117348000Y-89916000D03*
%TD*%
D26*
%TO.N,Net-(C1-Pad1)*%
X148590000Y-89154000D02*
X146812000Y-89154000D01*
X137160000Y-98806000D02*
X131318000Y-98806000D01*
X146812000Y-89154000D02*
X137160000Y-98806000D01*
X117348000Y-89916000D02*
X123698000Y-96266000D01*
X123698000Y-96266000D02*
X125476000Y-96266000D01*
X128016000Y-98806000D02*
X131318000Y-98806000D01*
X125476000Y-96266000D02*
X128016000Y-98806000D01*
%TO.N,Net-(C2-Pad1)*%
X131318000Y-91440000D02*
X138684000Y-84074000D01*
X131318000Y-93726000D02*
X131318000Y-91440000D01*
X97536000Y-86868000D02*
X97536000Y-86106000D01*
X105156000Y-78486000D02*
X110236000Y-78486000D01*
X97536000Y-86106000D02*
X105156000Y-78486000D01*
X99060000Y-86868000D02*
X107188000Y-94996000D01*
X97536000Y-86868000D02*
X99060000Y-86868000D01*
X110236000Y-78486000D02*
X112014000Y-76708000D01*
X123698000Y-101346000D02*
X121666000Y-103378000D01*
X121666000Y-103378000D02*
X111760000Y-103378000D01*
X111760000Y-99568000D02*
X107188000Y-94996000D01*
X111760000Y-103378000D02*
X111760000Y-99568000D01*
X112014000Y-76708000D02*
X123444000Y-76708000D01*
X123444000Y-76708000D02*
X126746000Y-80010000D01*
X126746000Y-89154000D02*
X131318000Y-93726000D01*
X126746000Y-80010000D02*
X126746000Y-89154000D01*
%TO.N,Net-(C3-Pad2)*%
X138270000Y-79756000D02*
X138938000Y-79756000D01*
X131666000Y-86360000D02*
X138270000Y-79756000D01*
%TO.N,Net-(C3-Pad1)*%
X121666000Y-80010000D02*
X120650000Y-78994000D01*
X121666000Y-86360000D02*
X121666000Y-80010000D01*
X115308000Y-78994000D02*
X110236000Y-84066000D01*
X120650000Y-78994000D02*
X115308000Y-78994000D01*
X110236000Y-84066000D02*
X105664000Y-88638000D01*
X105664000Y-88638000D02*
X105664000Y-89916000D01*
X113538000Y-97790000D02*
X117094000Y-97790000D01*
X105664000Y-89916000D02*
X113538000Y-97790000D01*
%TO.N,Net-(C4-Pad1)*%
X166116000Y-88392000D02*
X162052000Y-92456000D01*
X168148000Y-88392000D02*
X166116000Y-88392000D01*
X165100000Y-88392000D02*
X157480000Y-80772000D01*
X168148000Y-88392000D02*
X165100000Y-88392000D01*
X157480000Y-80772000D02*
X157480000Y-80010000D01*
X157480000Y-80772000D02*
X155956000Y-80772000D01*
X155956000Y-80772000D02*
X152146000Y-76962000D01*
X135382000Y-76962000D02*
X133350000Y-78994000D01*
X152146000Y-76962000D02*
X135382000Y-76962000D01*
%TO.N,Net-(Q1-Pad1)*%
X117094000Y-100330000D02*
X119888000Y-100330000D01*
X121412000Y-98806000D02*
X123698000Y-98806000D01*
X119888000Y-100330000D02*
X121412000Y-98806000D01*
%TO.N,Net-(Q2-Pad1)*%
X137414000Y-101346000D02*
X131318000Y-101346000D01*
%TO.N,Net-(Q2-Pad2)*%
X158844000Y-97322000D02*
X141946000Y-97322000D01*
X138684000Y-100584000D02*
X138684000Y-101346000D01*
X141946000Y-97322000D02*
X138684000Y-100584000D01*
%TO.N,Net-(R1-Pad2)*%
X138430000Y-89154000D02*
X142240000Y-89154000D01*
X147320000Y-84074000D02*
X148844000Y-84074000D01*
X142240000Y-89154000D02*
X147320000Y-84074000D01*
X138430000Y-89154000D02*
X131318000Y-96266000D01*
%TO.N,Net-(R4-Pad2)*%
X148844000Y-99822000D02*
X152146000Y-99822000D01*
X152146000Y-99822000D02*
X154432000Y-102108000D01*
X161544000Y-102108000D02*
X162052000Y-102616000D01*
X154432000Y-102108000D02*
X161544000Y-102108000D01*
%TO.N,Net-(R5-Pad1)*%
X146892000Y-94822000D02*
X146304000Y-94234000D01*
X148844000Y-94822000D02*
X146892000Y-94822000D01*
%TD*%
M02*
