M48
; DRILL file {KiCad 5.1.9} date Tue Mar  9 01:50:28 2021
; FORMAT={-:-/ absolute / inch / decimal}
; #@! TF.CreationDate,2021-03-09T01:50:28+01:00
; #@! TF.GenerationSoftware,Kicad,Pcbnew,5.1.9
; #@! TF.FileFunction,Plated,1,2,PTH
FMAT,2
INCH
T1C0.0295
T2C0.0315
T3C0.0394
T4C0.0433
T5C0.0472
T6C0.0512
T7C0.0598
T8C0.0709
%
G90
G05
T1
X5.41Y-3.99
X5.46Y-3.99
X5.51Y-3.99
T2
X4.87Y-3.69
X4.87Y-3.79
X4.87Y-3.89
X4.87Y-3.99
X5.17Y-3.69
X5.17Y-3.79
X5.17Y-3.89
X5.17Y-3.99
X5.36Y-3.71
X5.45Y-3.51
X5.46Y-3.31
X5.47Y-3.14
X5.76Y-3.71
X5.85Y-3.51
X5.86Y-3.31
X5.87Y-3.14
X6.38Y-3.64
X6.38Y-4.04
T3
X4.22Y-3.74
X4.22Y-3.9369
X4.4231Y-3.54
X4.62Y-3.54
X4.79Y-3.4
X5.1837Y-3.4
T4
X4.61Y-3.75
X4.61Y-3.85
X4.61Y-3.95
T5
X4.75Y-3.11
X5.25Y-3.11
X6.2Y-3.18
X6.2Y-3.4753
T6
X5.86Y-3.7331
X5.86Y-3.93
X6.2537Y-3.8316
T7
X3.84Y-3.42
X3.84Y-3.62
X6.62Y-3.48
X6.62Y-3.68
T8
X4.34Y-3.09
X4.34Y-3.3097
T0
M30
