%TF.GenerationSoftware,KiCad,Pcbnew,5.1.9*%
%TF.CreationDate,2021-03-09T01:50:32+01:00*%
%TF.ProjectId,nixie_power,6e697869-655f-4706-9f77-65722e6b6963,rev?*%
%TF.SameCoordinates,Original*%
%TF.FileFunction,Soldermask,Top*%
%TF.FilePolarity,Negative*%
%FSLAX46Y46*%
G04 Gerber Fmt 4.6, Leading zero omitted, Abs format (unit mm)*
G04 Created by KiCad (PCBNEW 5.1.9) date 2021-03-09 01:50:32*
%MOMM*%
%LPD*%
G01*
G04 APERTURE LIST*
%ADD10O,1.600000X1.600000*%
%ADD11C,1.600000*%
%ADD12R,1.600000X1.600000*%
%ADD13C,2.340000*%
%ADD14R,1.050000X1.500000*%
%ADD15O,1.050000X1.500000*%
%ADD16O,2.000000X1.905000*%
%ADD17R,2.000000X1.905000*%
%ADD18C,3.600000*%
%ADD19C,3.000000*%
%ADD20R,3.000000X3.000000*%
%ADD21O,2.400000X2.400000*%
%ADD22R,2.400000X2.400000*%
%ADD23C,2.400000*%
%ADD24C,2.000000*%
%ADD25R,2.000000X2.000000*%
G04 APERTURE END LIST*
D10*
%TO.C,R1*%
X148844000Y-84074000D03*
D11*
X138684000Y-84074000D03*
%TD*%
D10*
%TO.C,U1*%
X131318000Y-93726000D03*
X123698000Y-101346000D03*
X131318000Y-96266000D03*
X123698000Y-98806000D03*
X131318000Y-98806000D03*
X123698000Y-96266000D03*
X131318000Y-101346000D03*
D12*
X123698000Y-93726000D03*
%TD*%
D13*
%TO.C,RV1*%
X148844000Y-99822000D03*
X158844000Y-97322000D03*
X148844000Y-94822000D03*
%TD*%
D10*
%TO.C,R5*%
X136144000Y-94234000D03*
D11*
X146304000Y-94234000D03*
%TD*%
D10*
%TO.C,R4*%
X162052000Y-102616000D03*
D11*
X162052000Y-92456000D03*
%TD*%
%TO.C,R3*%
X138938000Y-79756000D03*
D10*
X149098000Y-79756000D03*
%TD*%
%TO.C,R2*%
X148590000Y-89154000D03*
D11*
X138430000Y-89154000D03*
%TD*%
D14*
%TO.C,Q2*%
X137414000Y-101346000D03*
D15*
X139954000Y-101346000D03*
X138684000Y-101346000D03*
%TD*%
D16*
%TO.C,Q1*%
X117094000Y-95250000D03*
X117094000Y-97790000D03*
D17*
X117094000Y-100330000D03*
%TD*%
D18*
%TO.C,L1*%
X110236000Y-84066000D03*
X110236000Y-78486000D03*
%TD*%
D19*
%TO.C,J2*%
X168148000Y-93472000D03*
D20*
X168148000Y-88392000D03*
%TD*%
D19*
%TO.C,J1*%
X97536000Y-91948000D03*
D20*
X97536000Y-86868000D03*
%TD*%
D21*
%TO.C,D1*%
X120650000Y-78994000D03*
D22*
X133350000Y-78994000D03*
%TD*%
D23*
%TO.C,C4*%
X157480000Y-88272000D03*
D22*
X157480000Y-80772000D03*
%TD*%
D24*
%TO.C,C3*%
X131666000Y-86360000D03*
X121666000Y-86360000D03*
%TD*%
%TO.C,C2*%
X107188000Y-99996000D03*
D25*
X107188000Y-94996000D03*
%TD*%
D24*
%TO.C,C1*%
X112348000Y-89916000D03*
X117348000Y-89916000D03*
%TD*%
M02*
